<svg xmlns="http://www.w3.org/2000/svg" xmlns:xlink="http://www.w3.org/1999/xlink" xmlns:lucid="lucid" width="2420" height="760"><g transform="translate(0 -20)" lucid:page-tab-id="0_0"><path d="M0 0h3677.73v1322.84H0z" fill="#fff"/><path d="M40 106a6 6 0 0 1 6-6h103a6 6 0 0 1 6 6v8a14.48 14.48 0 0 1-4.24 10.24l-1.52 1.52A14.48 14.48 0 0 1 139 130H46a6 6 0 0 1-6-6z" fill="#fff"/><path d="M155 100v20l-10 10H40" stroke="#3a414a" fill="none"/><path d="M40 106a6 6 0 0 1 6-6h2288a6 6 0 0 1 6 6v208a6 6 0 0 1-6 6H46a6 6 0 0 1-6-6z" stroke="#3a414a" fill="none"/><use xlink:href="#a" transform="matrix(1,0,0,1,48,100) translate(0 18.6)"/><path d="M40 486a6 6 0 0 1 6-6h103a6 6 0 0 1 6 6v8a14.48 14.48 0 0 1-4.24 10.24l-1.52 1.52A14.48 14.48 0 0 1 139 510H46a6 6 0 0 1-6-6z" fill="#fff"/><path d="M155 480v20l-10 10H40" stroke="#3a414a" fill="none"/><path d="M40 486a6 6 0 0 1 6-6h2288a6 6 0 0 1 6 6v248a6 6 0 0 1-6 6H46a6 6 0 0 1-6-6z" stroke="#3a414a" fill="none"/><use xlink:href="#b" transform="matrix(1,0,0,1,48,480) translate(0 18.6)"/><path d="M20 46a6 6 0 0 1 6-6h2368a6 6 0 0 1 6 6v708a6 6 0 0 1-6 6H26a6 6 0 0 1-6-6z" stroke="#3a414a" fill-opacity="0"/><use xlink:href="#c" transform="matrix(1,0,0,1,28,48) translate(1088.111111111111 53.33333333333334)"/><path d="M280 166a6 6 0 0 1 6-6h148a6 6 0 0 1 6 6v108a6 6 0 0 1-6 6H286a6 6 0 0 1-6-6z" stroke="#3a414a" fill="#fff"/><use xlink:href="#d" transform="matrix(1,0,0,1,292,172) translate(25.77777777777778 38.77777777777778)"/><use xlink:href="#e" transform="matrix(1,0,0,1,292,172) translate(25.77777777777778 65.44444444444446)"/><path d="M102.44 221.78H81.7c-.95 0-1.7-.76-1.7-1.7v-2.54c0-9.48 6.23-17.44 15.5-19.67.42-.1.8-.04 1.2.17 2.73 1.46 5.68 1.46 8.4 0 .4-.2.8-.26 1.22-.17 2.43.6 4.43 1.47 6.5 2.85l-1.9 2.83c-1.55-1-3-1.68-4.8-2.15-3.45 1.58-7 1.58-10.44 0-7.38 2.06-12.27 8.5-12.27 16.14v.84h19.04z" stroke="#fff" stroke-opacity="0" fill="#232f3e"/><path d="M100.88 202.46c-6.17 0-11.17-5-11.17-11.14 0-6.16 5-11.15 11.18-11.15 6.17-.07 11.2 4.88 11.26 11 .04 4.27-2.1 7.9-5.86 9.9-1.72.97-3.4 1.4-5.4 1.4zm0-18.9c-4.3 0-7.83 3.45-7.85 7.76 0 2.92 1.48 5.4 4.06 6.8 2.43 1.3 5.12 1.3 7.57 0 2.6-1.4 4.1-3.95 4.06-6.9-.05-4.27-3.57-7.68-7.85-7.64zM158.32 221.78h-20.75v-3.4h19.04v-.83c0-7.67-4.9-14.1-12.25-16.17-3.45 1.6-7 1.6-10.46 0-1.82.5-3.3 1.2-4.84 2.28l-1.94-2.8c2.07-1.44 4.07-2.35 6.5-2.97.44-.1.86-.06 1.26.16 2.7 1.46 5.7 1.46 8.42 0 .4-.22.78-.27 1.2-.17 9.25 2.22 15.5 10.16 15.5 19.65v2.53c0 .94-.76 1.68-1.68 1.7z" stroke="#fff" stroke-opacity="0" fill="#232f3e"/><path d="M139.08 202.46c-6.2 0-11.23-5.05-11.23-11.25s5.06-11.2 11.28-11.2c6.2 0 11.23 5.05 11.23 11.25 0 4.23-2.14 7.82-5.85 9.84-1.75.94-3.44 1.36-5.42 1.36zm0-18.9c-4.3 0-7.8 3.45-7.83 7.76-.02 2.92 1.46 5.42 4.05 6.8 2.43 1.3 5.13 1.3 7.6 0 2.62-1.4 4.13-3.97 4.08-6.96-.1-4.26-3.62-7.68-7.9-7.6zM147.2 260H92.73c-.92 0-1.67-.75-1.67-1.7v-3.6c-.06-13.1 8.6-24.1 21.33-27.18.46-.13.86-.06 1.27.13 4.04 2.18 8.5 2.18 12.6 0 .34-.2.75-.26 1.2-.13 12.78 3.06 21.45 14.06 21.4 27.17v3.6c0 .95-.76 1.7-1.68 1.7zm-52.72-3.38h50.97v-1.93c0-11.26-7.28-20.74-18.2-23.66-4.8 2.3-9.83 2.3-14.62 0-10.93 2.92-18.15 12.4-18.15 23.66z" stroke="#fff" stroke-opacity="0" fill="#232f3e"/><path d="M120.02 232.64c-2.7 0-5-.58-7.4-1.86-7.4-4.07-10.13-13.34-6.1-20.77 4.1-7.4 13.38-10.12 20.83-6.08 7.42 4.07 10.15 13.34 6.1 20.77-1.47 2.68-3.4 4.6-6.1 6.08-2.36 1.28-4.66 1.86-7.33 1.86zm0-26.76c-4.44-.06-8.27 2.17-10.42 6.1-3.07 5.65-.98 12.74 4.7 15.83 3.67 1.97 7.72 1.97 11.4 0 3.95-2.13 6.22-5.96 6.16-10.42-.1-6.42-5.4-11.6-11.84-11.5z" stroke="#fff" stroke-opacity="0" fill="#232f3e"/><path d="M158.78 221.78h-39.72c-.68 0-1.23-.54-1.23-1.23v-2.64c-.04-9.53 6.3-17.56 15.56-19.8.33-.1.63-.06.92.08 2.95 1.6 6.2 1.6 9.2 0 .25-.14.54-.2.88-.1 9.32 2.24 15.64 10.26 15.6 19.83v2.65c0 .7-.55 1.23-1.22 1.23zm-38.46-2.47h37.2v-1.4c0-8.2-5.32-15.1-13.3-17.25-3.5 1.7-7.16 1.7-10.66 0-7.97 2.14-13.24 9.05-13.24 17.26z" stroke="#fff" stroke-opacity="0" stroke-width=".73" fill="#fff" fill-opacity="0"/><path d="M120.94 221.78H81.22c-.67 0-1.22-.54-1.22-1.23v-2.64c-.04-9.53 6.28-17.56 15.56-19.8.34-.1.63-.06.93.08 2.94 1.6 6.2 1.6 9.18 0 .25-.14.55-.2.88-.1 9.32 2.24 15.65 10.26 15.6 19.83v2.65c0 .7-.54 1.23-1.22 1.23zM82.5 219.3h37.18v-1.4c0-8.2-5.3-15.1-13.28-17.25-3.5 1.7-7.17 1.7-10.67 0-7.97 2.14-13.24 9.05-13.24 17.26z" stroke="#fff" stroke-opacity="0" stroke-width=".73" fill="#fff" fill-opacity="0"/><use xlink:href="#f" transform="matrix(1,0,0,1,50,269) translate(48.888888888888886 17.77777777777778)"/><path d="M160.5 220h102.62" stroke="#3a414a" fill="none"/><path d="M160.5 220.5h-.5v-1h.5z" stroke="#3a414a" stroke-width=".05" fill="#3a414a"/><path d="M277.88 220l-14.26 4.63v-9.26z" stroke="#3a414a" fill="#3a414a"/><path d="M441 220h62.12" stroke="#3a414a" fill="none"/><path d="M441 220.5h-.5v-1h.5z" stroke="#3a414a" stroke-width=".05" fill="#3a414a"/><path d="M517.88 220l-14.26 4.63v-9.26z" stroke="#3a414a" fill="#3a414a"/><path d="M520 166a6 6 0 0 1 6-6h148a6 6 0 0 1 6 6v108a6 6 0 0 1-6 6H526a6 6 0 0 1-6-6z" stroke="#3a414a" fill="#fff"/><use xlink:href="#g" transform="matrix(1,0,0,1,532,172) translate(46.888888888888886 53.77777777777778)"/><path d="M681 220h82.12" stroke="#3a414a" fill="none"/><path d="M681 220.5h-.5v-1h.5z" stroke="#3a414a" stroke-width=".05" fill="#3a414a"/><path d="M777.88 220l-14.26 4.63v-9.26z" stroke="#3a414a" fill="#3a414a"/><path d="M780 166a6 6 0 0 1 6-6h148a6 6 0 0 1 6 6v108a6 6 0 0 1-6 6H786a6 6 0 0 1-6-6z" stroke="#3a414a" fill="#fff"/><use xlink:href="#h" transform="matrix(1,0,0,1,792,172) translate(25.77777777777778 53.77777777777778)"/><path d="M956.22 220.5H941v-1h15.22z" stroke="#3a414a" stroke-width=".05" fill="#3a414a"/><path d="M941 220.5h-.5v-1h.5z" fill="#3a414a"/><path d="M941.04 220.53h-.56v-1.06h.56zm-.5-1v.94h.45v-.94z" stroke="#3a414a" stroke-width=".05" fill="#3a414a"/><path d="M1037.88 220l-14.1 4.58v-9.16z" fill="#3a414a"/><path d="M1039.5 220l-15.72 5.1v-10.2zm-15.38 3.95l12.14-3.95-12.14-3.95z" stroke="#3a414a" stroke-width=".05" fill="#3a414a"/><use xlink:href="#i" transform="matrix(1,0,0,1,956.2222222222222,209.33333333333334) translate(0 14.222222222222223)"/><path d="M1040 166a6 6 0 0 1 6-6h148a6 6 0 0 1 6 6v108a6 6 0 0 1-6 6h-148a6 6 0 0 1-6-6z" stroke="#3a414a" fill="#fff"/><use xlink:href="#j" transform="matrix(1,0,0,1,1052,172) translate(-5.888888888888886 52.44444444444444)"/><path d="M1201 220h82.12" stroke="#3a414a" fill="none"/><path d="M1201 220.5h-.5v-1h.5z" stroke="#3a414a" stroke-width=".05" fill="#3a414a"/><path d="M1297.88 220l-14.26 4.63v-9.26z" stroke="#3a414a" fill="#3a414a"/><path d="M1300 166a6 6 0 0 1 6-6h148a6 6 0 0 1 6 6v108a6 6 0 0 1-6 6h-148a6 6 0 0 1-6-6z" stroke="#3a414a" fill="#fff"/><use xlink:href="#k" transform="matrix(1,0,0,1,1312,172) translate(25.77777777777778 53.77777777777778)"/><path d="M1461 220h102.12" stroke="#3a414a" fill="none"/><path d="M1461 220.5h-.5v-1h.5z" stroke="#3a414a" stroke-width=".05" fill="#3a414a"/><path d="M1577.88 220l-14.26 4.63v-9.26z" stroke="#3a414a" fill="#3a414a"/><path d="M1580 166a6 6 0 0 1 6-6h148a6 6 0 0 1 6 6v108a6 6 0 0 1-6 6h-148a6 6 0 0 1-6-6z" stroke="#3a414a" fill="#fff"/><use xlink:href="#l" transform="matrix(1,0,0,1,1592,172) translate(46.888888888888886 53.77777777777778)"/><path d="M1741 220h82.12" stroke="#3a414a" fill="none"/><path d="M1741 220.5h-.5v-1h.5z" stroke="#3a414a" stroke-width=".05" fill="#3a414a"/><path d="M1837.88 220l-14.26 4.63v-9.26z" stroke="#3a414a" fill="#3a414a"/><path d="M1840 166a6 6 0 0 1 6-6h148a6 6 0 0 1 6 6v108a6 6 0 0 1-6 6h-148a6 6 0 0 1-6-6z" stroke="#3a414a" fill="#fff"/><use xlink:href="#m" transform="matrix(1,0,0,1,1852.0000000000002,172) translate(46.888888888888886 38.77777777777778)"/><use xlink:href="#n" transform="matrix(1,0,0,1,1852.0000000000002,172) translate(15.222222222222221 65.44444444444446)"/><path d="M2001 220h102.12" stroke="#3a414a" fill="none"/><path d="M2001 220.5h-.5v-1h.5z" stroke="#3a414a" stroke-width=".05" fill="#3a414a"/><path d="M2117.88 220l-14.26 4.63v-9.26z" stroke="#3a414a" fill="#3a414a"/><path d="M2240 220c0 22.1-26.86 40-60 40s-60-17.9-60-40 26.86-40 60-40 60 17.9 60 40z" stroke="#3a414a" fill="#fff"/><use xlink:href="#o" transform="matrix(1,0,0,1,2125,185) translate(12.777777777777779 39.65277777777778)"/><path d="M144 613.5c8.2 5.1 13.3 14.4 13.3 24.2 0 1.3-1 2.3-2.3 2.3h-50c-1.3 0-2.3-1-2.3-2.3 0-12.2 7.5-22.5 18-26.5-4.5-3-7.4-8-7.4-13.7 0-9.2 7.5-16.6 16.7-16.6 9.3 0 16.8 7.4 16.8 16.6 0 5.7-2.9 10.7-7.4 13.7 1.6.6 3.1 1.4 4.6 2.3zm22.7-40.9c8.2 5.1 13.3 14.3 13.3 24.2 0 1.3-1 2.3-2.3 2.3h-25v-4.6h22.6c-.6-7.4-4.7-14.2-11-18.1-3.5-2.1-7.5-3.3-11.6-3.3-5.2 0-10.3 1.9-14.4 5.4l-3-3.4c2.5-2.1 5.2-3.7 8.1-4.8-4.5-3-7.4-8-7.4-13.7 0-9.2 7.5-16.6 16.8-16.6 9.2 0 16.7 7.4 16.7 16.6 0 5.7-2.9 10.7-7.4 13.7 1.6.6 3.2 1.4 4.6 2.3zm-59.4 21.9v4.6h-25c-1.3 0-2.3-1-2.3-2.3 0-12.2 7.5-22.5 18-26.5-4.5-3-7.5-8-7.5-13.7 0-9.2 7.6-16.6 16.8-16.6 9.3 0 16.8 7.4 16.8 16.6 0 5.7-3 10.7-7.4 13.7 1.6.6 3.1 1.4 4.6 2.3 1.2.7 2.3 1.5 3.4 2.5l-3 3.4c-.9-.8-1.8-1.4-2.8-2.1-3.5-2.1-7.5-3.3-11.6-3.3-11.8 0-21.5 9.4-22.6 21.4zm.1 41h45.2c-.7-7.5-4.8-14.3-11-18.2-3.5-2.1-7.5-3.3-11.6-3.3-11.8 0-21.5 9.4-22.6 21.5zm-12.3-78.9c0 6.6 5.5 12 12.2 12 6.8 0 12.2-5.4 12.2-12 0-6.7-5.4-12.1-12.2-12.1-6.7 0-12.2 5.4-12.2 12.1zm45.4 0c0 6.6 5.5 12 12.3 12 6.7 0 12.2-5.4 12.2-12 0-6.7-5.5-12.1-12.2-12.1-6.8 0-12.3 5.4-12.3 12.1zm-22.7 40.9c0 6.6 5.5 12 12.2 12 6.8 0 12.3-5.4 12.3-12 0-6.7-5.5-12-12.3-12-6.7 0-12.2 5.3-12.2 12z" stroke="#000" stroke-opacity="0" fill="#242f3e"/><path d="M103.03 634.28l.3-2.2.1-.78 3.86-32.3-25.93-2.1 6.1-17.98 14.3-9.13-9.18-11.92 4.24-11.82 9.67-4.23 12.78 5.86 3 10.47-8.22 12.5 10.63 4.32 10.73.08 10.54-5-7.55-10.66 3.4-13.26 12.66-3.85 11.2 7.3 1.56 11.35-7.83 9.13 14.22 11.15 4.45 15.66-25.24 2.1 4.06 33.93-1.36 5H103.7z" stroke="#000" stroke-opacity="0" fill-opacity="0"/><use xlink:href="#p" transform="matrix(1,0,0,1,50,649) translate(63.099999999999994 14.4)"/><path d="M179.57 590h83.55" stroke="#3a414a" fill="none"/><path d="M179.58 590.5h-.36l-.3-1h.66z" stroke="#3a414a" stroke-width=".05" fill="#3a414a"/><path d="M277.88 590l-14.26 4.63v-9.26z" stroke="#3a414a" fill="#3a414a"/><path d="M280 536a6 6 0 0 1 6-6h148a6 6 0 0 1 6 6v108a6 6 0 0 1-6 6H286a6 6 0 0 1-6-6z" stroke="#3a414a" fill="#fff"/><use xlink:href="#d" transform="matrix(1,0,0,1,292,542) translate(25.77777777777778 38.77777777777778)"/><use xlink:href="#e" transform="matrix(1,0,0,1,292,542) translate(25.77777777777778 65.44444444444446)"/><path d="M441 590h82.12" stroke="#3a414a" fill="none"/><path d="M441 590.5h-.5v-1h.5z" stroke="#3a414a" stroke-width=".05" fill="#3a414a"/><path d="M537.88 590l-14.26 4.63v-9.26z" stroke="#3a414a" fill="#3a414a"/><path d="M540 536a6 6 0 0 1 6-6h108a6 6 0 0 1 6 6v108a6 6 0 0 1-6 6H546a6 6 0 0 1-6-6z" stroke="#3a414a" fill="#fff"/><use xlink:href="#q" transform="matrix(1,0,0,1,552,542) translate(5.777777777777779 38.77777777777778)"/><use xlink:href="#r" transform="matrix(1,0,0,1,552,542) translate(26.88888888888889 65.44444444444446)"/><path d="M661 590h62.12" stroke="#3a414a" fill="none"/><path d="M661 590.5h-.5v-1h.5z" stroke="#3a414a" stroke-width=".05" fill="#3a414a"/><path d="M737.88 590l-14.26 4.63v-9.26z" stroke="#3a414a" fill="#3a414a"/><path d="M740 536a6 6 0 0 1 6-6h148a6 6 0 0 1 6 6v108a6 6 0 0 1-6 6H746a6 6 0 0 1-6-6z" stroke="#3a414a" fill="#fff"/><use xlink:href="#s" transform="matrix(1,0,0,1,752,542) translate(1.8888888888888857 38.77777777777778)"/><use xlink:href="#t" transform="matrix(1,0,0,1,752,542) translate(91.88888888888889 38.77777777777778)"/><use xlink:href="#u" transform="matrix(1,0,0,1,752,542) translate(46.888888888888886 65.44444444444446)"/><path d="M936.22 590.5H901v-1h35.22zm86.9 0h-19.34v-1h19.34z" stroke="#3a414a" stroke-width=".05" fill="#3a414a"/><path d="M901 590.5h-.5v-1h.5z" fill="#3a414a"/><path d="M901.04 590.52h-.56v-1.04h.56zm-.5-1v.96h.45v-.96z" stroke="#3a414a" stroke-width=".05" fill="#3a414a"/><path d="M1037.88 590l-14.26 4.63v-9.26z" fill="#3a414a"/><path d="M1039.5 590l-16.38 5.32v-10.64zm-15.38 3.95l12.14-3.95-12.14-3.95z" stroke="#3a414a" stroke-width=".05" fill="#3a414a"/><use xlink:href="#i" transform="matrix(1,0,0,1,936.2222222222222,579.3333333333334) translate(0 14.222222222222223)"/><path d="M1040 536a6 6 0 0 1 6-6h148a6 6 0 0 1 6 6v108a6 6 0 0 1-6 6h-148a6 6 0 0 1-6-6z" stroke="#3a414a" fill="#fff"/><use xlink:href="#j" transform="matrix(1,0,0,1,1052,542) translate(-5.888888888888886 52.44444444444444)"/><path d="M1201 590h82.12" stroke="#3a414a" fill="none"/><path d="M1201 590.5h-.5v-1h.5z" stroke="#3a414a" stroke-width=".05" fill="#3a414a"/><path d="M1297.88 590l-14.26 4.63v-9.26z" stroke="#3a414a" fill="#3a414a"/><path d="M1300 536a6 6 0 0 1 6-6h148a6 6 0 0 1 6 6v108a6 6 0 0 1-6 6h-148a6 6 0 0 1-6-6z" stroke="#3a414a" fill="#fff"/><use xlink:href="#k" transform="matrix(1,0,0,1,1312,542) translate(25.77777777777778 53.77777777777778)"/><path d="M1461 590h82.12" stroke="#3a414a" fill="none"/><path d="M1461 590.5h-.5v-1h.5z" stroke="#3a414a" stroke-width=".05" fill="#3a414a"/><path d="M1557.88 590l-14.26 4.63v-9.26z" stroke="#3a414a" fill="#3a414a"/><path d="M1560 536a6 6 0 0 1 6-6h148a6 6 0 0 1 6 6v108a6 6 0 0 1-6 6h-148a6 6 0 0 1-6-6z" stroke="#3a414a" fill="#fff"/><use xlink:href="#l" transform="matrix(1,0,0,1,1572,542) translate(46.888888888888886 53.77777777777778)"/><path d="M1721 590h82.12" stroke="#3a414a" fill="none"/><path d="M1721 590.5h-.5v-1h.5z" stroke="#3a414a" stroke-width=".05" fill="#3a414a"/><path d="M1817.88 590l-14.26 4.63v-9.26z" stroke="#3a414a" fill="#3a414a"/><path d="M1820 536a6 6 0 0 1 6-6h148a6 6 0 0 1 6 6v108a6 6 0 0 1-6 6h-148a6 6 0 0 1-6-6z" stroke="#3a414a" fill="#fff"/><use xlink:href="#v" transform="matrix(1,0,0,1,1832,542) translate(-5.888888888888886 52.44444444444444)"/><path d="M1981 590h102.12" stroke="#3a414a" fill="none"/><path d="M1981 590.5h-.5v-1h.5z" stroke="#3a414a" stroke-width=".05" fill="#3a414a"/><path d="M2097.88 590l-14.26 4.63v-9.26z" stroke="#3a414a" fill="#3a414a"/><path d="M2180 590c0 22.1-17.9 40-40 40s-40-17.9-40-40 17.9-40 40-40 40 17.9 40 40z" stroke="#3a414a" fill="#fff"/><g><use xlink:href="#m" transform="matrix(1,0,0,1,2105,555) translate(13.89388888888889 26.52777777777778)"/><use xlink:href="#w" transform="matrix(1,0,0,1,2105,555) translate(13.89388888888889 53.19444444444445)"/></g><defs><path d="M282-14c-6 89-204 90-209 0 4-91 204-88 209 0zm-26 1c-7-60-157-64-157 0 0 37 40 43 78 43 37 0 75-9 79-43zM19-110c50-34 88-81 88-159 0-11 13-4 21-5 11 12 0 40-2 54 12 45 46 73 82 95-2 8-7 13-11 18-36-15-64-44-82-77-18 39-46 69-83 91-6-3-12-10-13-17zm308-80c8 0 7 22 0 22h-50v82c0 8-13 4-20 5-3 0-5-2-5-5v-190c0-9 12-5 20-6 3 0 5 3 5 6v86h50" id="x"/><path d="M88 48C47 52 63-1 60-35c-3-43 61-19 96-25v-41H16c-6 0-5-10-5-17-1-3 2-6 5-5h306c8-1 6 9 6 17 0 2-4 5-6 5H181v41c36 5 100-18 96 25-4 34 15 83-27 83H88zM63-253c-7-1-8-21 0-21h208c9-1 4 10 5 16-4 11-28 3-41 5v72h43c8 0 4 9 5 16 0 3-1 5-5 5H56c-6 0-5-9-5-16 6-11 34-2 49-5v-72H63zM252-29c0-9-1-9-8-10H94c-19 3-5 38-9 56 0 8 2 8 9 9h150c6-1 9-1 8-9v-46zM125-181h86v-72h-86v72" id="y"/><path d="M54-254c0-8-2-18 6-17h190c22-2 28 10 28 28 1 45-7 80-15 121 21 2 52-5 65 4 0 8 2 18-6 17H181V43c0 7-12 5-20 5-3 1-6-2-5-5v-144H16c-7 1-5-10-5-17-1-2 3-5 5-4h222c9-35 16-75 15-120-1-6-1-9-8-8H60c-3 1-6-2-6-4" id="z"/><path d="M55-45c-21 1-29-6-28-26v-156c1-22 6-25 28-26h84c20-1 27 6 27 26v156c-1 21-5 25-27 26H55zm177-100h46v-131c0-8 11-6 19-6 3 0 5 3 5 6V45c0 8-12 4-19 5-3 0-5-2-5-5v-169h-46V32c0 8-12 4-19 5-3 0-5-2-5-5v-302c0-8 12-4 19-5 3 0 5 2 5 5v125zm-91-77c0-8-2-8-9-9H61c-7 1-9 1-9 9v146c0 8 2 8 9 9h71c7-1 9-1 9-9v-146" id="A"/><g id="a"><use transform="matrix(0.05,0,0,0.05,0,0)" xlink:href="#x"/><use transform="matrix(0.05,0,0,0.05,16.900000000000002,0)" xlink:href="#y"/><use transform="matrix(0.05,0,0,0.05,33.800000000000004,0)" xlink:href="#z"/><use transform="matrix(0.05,0,0,0.05,50.7,0)" xlink:href="#A"/></g><path d="M99 48C57 52 75-3 72-38c-2-22 6-24 27-25h151c43-6 27 51 27 85 0 21-6 26-27 26H99zM63-195c40 3 95-7 117 2-1 6 3 16-4 17l-113 2v44c0 17 28 6 42 9 34-3 70-3 100-10 8-2 7 8 9 14 0 14-24 7-37 12-34 5-72 7-111 6-22 0-27-9-28-30v-112c1-21 7-24 28-25h116c7 0 3 11 4 17 0 3-1 5-4 5H70c-6 0-7 0-7 7v42zM252-32c0-9-1-9-8-10H105c-7 1-9 2-9 10v49c0 8 2 8 9 9h139c6-1 9-1 8-9v-49zm80-154c0 7 2 18-5 17h-50v82c0 8-13 4-20 5-3 0-5-2-5-5v-189c0-9 12-5 20-6 3 0 5 3 5 6v86c18 2 46-5 55 4" id="B"/><path d="M232-96c0 8-12 4-19 5-3 0-5-2-5-5v-174c0-8 12-4 19-5 3 0 5 2 5 5v79h46v-85c0-8 11-6 19-6 3 0 5 3 5 6v185c0 8-12 4-19 5-3 0-5-2-5-5v-78h-46v73zM86-45c-7-2-8-22 0-22h188c50-2 20 74 28 114 0 8-13 4-20 5-3 0-5-2-5-5v-85c0-6-2-7-8-7H86zm-64-75c45-30 68-88 77-149 7 2 21-3 21 6 0 18-3 35-8 52 14 35 37 66 70 82 6 7-5 17-10 21-29-15-55-45-71-73-16 34-38 60-68 82-7-4-18-14-11-21" id="C"/><g id="b"><use transform="matrix(0.05,0,0,0.05,0,0)" xlink:href="#x"/><use transform="matrix(0.05,0,0,0.05,16.900000000000002,0)" xlink:href="#y"/><use transform="matrix(0.05,0,0,0.05,33.800000000000004,0)" xlink:href="#B"/><use transform="matrix(0.05,0,0,0.05,50.7,0)" xlink:href="#C"/></g><path fill="#3a414a" d="M258-274c16 0 24 8 24 25 0 46-4 86-13 123 20 3 53-7 62 6-1 10 4 29-6 29H186V49c-3 11-25 3-36 5-3 0-5-2-5-5V-91H12c-8-2-9-32 0-35h217c7-29 13-69 12-106 1-7-5-7-10-8H58c-11 0-4-20-6-30 0-2 3-5 6-4h200" id="D"/><path fill="#3a414a" d="M165-67c-1 18-5 23-24 24H50c-19-1-27-4-26-24v-167c1-19 5-22 24-23h93c19 0 24 4 24 23v167zm-42-152c0-3-2-4-5-4-17 1-37-1-52 1-2 44-2 99 0 144 16 2 40 2 57 0v-141zm148-61c3-11 25-3 36-5 3 0 5 2 5 5V52c-3 11-25 3-36 5-3 0-5-2-5-5v-170h-33V39c-3 8-34 9-39 0v-313c4-9 23-2 34-4 3 0 5 1 5 4v122h33v-128" id="E"/><path fill="#3a414a" d="M123-111C97-81 67-48 26-28c-8-7-27-24-16-32 53-40 110-87 125-161-28-5-68 0-100-2-8-3-9-31 1-35h117c19 0 33 9 29 29-7 33-20 61-35 87 19 29 47 53 73 75 0 11-12 16-17 24-33 3-56-47-80-68zm208-42c9 5 8 32 0 35h-49V52c-3 11-25 3-37 5-3 0-5-2-5-5v-332c3-11 25-3 37-5 3 0 5 2 5 5v127h49" id="F"/><g id="c"><use transform="matrix(0.1851851851851852,0,0,0.1851851851851852,0,0)" xlink:href="#D"/><use transform="matrix(0.1851851851851852,0,0,0.1851851851851852,62.592592592592595,0)" xlink:href="#E"/><use transform="matrix(0.1851851851851852,0,0,0.1851851851851852,125.18518518518519,0)" xlink:href="#F"/></g><path fill="#3a414a" d="M130-238l-5 15c39 6 72 28 72 70 0 45-35 70-83 70-47 0-82-24-82-70 0-44 33-67 77-70-1-9-6-11-15-14 4-13 24-1 36-1zM115-99c35 0 57-22 57-55s-22-56-57-56c-34 0-57 22-57 56s23 55 57 55zm152-158c-1-22-21-25-44-32l4-9c22 2 48 7 67 11-13 98 6 225-10 327l-14 2c-7-92 1-201-3-299" id="G"/><path fill="#3a414a" d="M42-233c53 0 110 6 155-5l8 8C174-145 116-76 39-37l-8-7c43-25 80-63 106-104-34 2-64 7-94 11l-10-20 112-4c11-19 19-36 26-57l-115 7zm181-65c22 2 48 7 67 11-9 102 4 223-9 327l-15 2-3-175c-28 0-57 2-81 6l-10-21c25 4 62 1 91 1v-110c-2-22-21-25-44-32" id="H"/><path fill="#3a414a" d="M266-153c-24 0-47 2-67 6l-8-17-7 61 15-1-4 19c-39-3-80-2-119 0 0 5-1 10-2 14l-14 2c-6-39-8-83-10-125-1-17-10-23-25-26l3-9c57 6 115 4 171-1l-8 63c21 4 50 1 75 2v-92c-2-22-20-25-43-32l3-9c23 2 49 7 68 11-13 98 5 224-10 327l-15 2zm-96-59l-96 1 3 113 88-3" id="I"/><path fill="#3a414a" d="M169-244c-4-10-14-12-25-18 13-17 43 6 61 9-9 16-19 31-30 46 42 24 86 51 134 68l-20 21c-39-29-83-53-122-79-33 40-77 74-126 95l-7-8c58-30 108-74 135-134zM14-35l230 1 88-8-4 23-278 5-26 3" id="J"/><g id="d"><use transform="matrix(0.06172839506172839,0,0,0.06172839506172839,0,0)" xlink:href="#G"/><use transform="matrix(0.06172839506172839,0,0,0.06172839506172839,21.11111111111111,0)" xlink:href="#H"/><use transform="matrix(0.06172839506172839,0,0,0.06172839506172839,42.22222222222222,0)" xlink:href="#I"/><use transform="matrix(0.06172839506172839,0,0,0.06172839506172839,63.33333333333333,0)" xlink:href="#J"/></g><path fill="#3a414a" d="M245-176c0 33-29 47-60 52v23l111-4c15-1 27-3 40-5l-3 23-290 5-27 3-9-25 155 4v-24c-33-5-63-18-63-52 0-72 146-70 146 0zm-73-41c-27 0-46 13-46 40 0 26 20 39 46 39 27 0 47-12 47-39 0-26-21-40-47-40zm-58-75c32 7 77 5 110 0l-4 17-96 3zm174 49l-230 8-10-21c78 9 170-1 246-7zM76-64c61 8 131 4 193-1L258 7l14-1-5 19H120c0 5-1 10-2 14l-14 2c-9-34 5-90-32-96zm165 17l-121 2 1 57 118-3" id="K"/><path fill="#3a414a" d="M195-84C141-70 93-66 38-60L25-83c15 3 36 5 53 2-9-35 11-96-30-100l2-10c16 0 29 2 44 4-5 33 3 70 4 105 12 1 24-3 35-3-3-37 23-102-21-104 2-18 36-4 51-3-9 29-7 70-10 105l42-7v10zm82-173c-1-22-16-25-39-32l4-9 62 11c-9 102 4 223-9 327l-15 2-3-76v-223zm-97 44l-143 7-10-22c50 8 106 3 158-5zm63-59c-9 93 4 207-10 300l-13 2-3-176c-16 1-31 3-46 7l-10-21c14 5 38 2 56 2-4-49 18-114-36-115l4-9c23 1 39 6 58 10" id="L"/><path fill="#3a414a" d="M203-234c-13 36-32 67-55 95 27 24 50 42 84 62l-20 19c-24-27-48-47-72-72-29 34-68 64-108 85l-7-7c63-40 118-94 143-171l-87 4-27 4-14-22c52 3 109 5 154-5zm63-23c-3-21-21-25-44-32l4-9c23 2 49 7 68 11-12 98 4 223-10 327l-15 2-3-76v-223" id="M"/><g id="e"><use transform="matrix(0.06172839506172839,0,0,0.06172839506172839,0,0)" xlink:href="#K"/><use transform="matrix(0.06172839506172839,0,0,0.06172839506172839,21.11111111111111,0)" xlink:href="#L"/><use transform="matrix(0.06172839506172839,0,0,0.06172839506172839,42.22222222222222,0)" xlink:href="#G"/><use transform="matrix(0.06172839506172839,0,0,0.06172839506172839,63.33333333333333,0)" xlink:href="#M"/></g><path fill="#3a414a" d="M118-162l54 7c-8 33-2 82-4 123l122-6c15-1 29-3 42-5l-4 23-251 4-53 4-10-24 92 5c12 0 26-1 40-1-6-46 21-120-32-121zm-62-92c74 10 154-1 227-4 12 48-19 125-32 171h-14c10-45 16-102 20-153l-158 5-31 4" id="N"/><path fill="#3a414a" d="M234-272c-7 24-3 59-4 89l47-3v-71c-2-21-16-25-39-32l4-9 62 11c-11 55 3 134-11 192l-14 3-2-79-47 3c1 29-2 54-7 76l-14 1c-3-48-1-100-2-151 0-22-13-25-35-31l4-9c22 1 39 6 58 10zM37-246c44 5 92 3 131-5l8 7C148-168 96-118 33-77l-7-7c53-36 95-85 119-148l-95 7zM273-65c-63 0-119 6-179 9L83-77c69 8 149 0 216-5-6 36 4 82-8 116l-15 3c-5-29-3-68-3-102" id="O"/><g id="f"><use transform="matrix(0.06172839506172839,0,0,0.06172839506172839,0,0)" xlink:href="#N"/><use transform="matrix(0.06172839506172839,0,0,0.06172839506172839,21.11111111111111,0)" xlink:href="#O"/></g><path fill="#3a414a" d="M225-298c23 2 49 7 67 11-8 53 3 124-9 178l-15 2c-3-17-3-41-3-62-28 0-61 2-85 6l-10-21c26 6 65 2 95 1v-74c-3-21-21-25-44-32zM39-253c47 5 109 4 150-5l9 5c-29 78-94 136-167 171l-7-7c61-34 112-84 140-150-37 2-78 2-111 8zm63 158c62 8 124 4 187-1L279 5l13-2-5 20c-41-4-96-2-140-1 0 5-2 11-3 15l-13 2c-7-29-9-65-9-98 0-19-9-23-24-27zm159 17l-115 2 2 85 112-3" id="P"/><path fill="#3a414a" d="M91-265l52 15c-8 24-18 44-29 62 21 24 47 47 75 65l-20 17-62-71c-24 35-55 62-91 85l-5-7c44-36 84-77 98-141-3-10-15-12-24-18zM271-64L94-54 83-76c68 7 147 0 214-4-6 35 3 81-8 114l-15 2c-5-28-3-66-3-100zm-40-208c-3 25-3 53-3 81 17 0 32 0 47-3 0-47 9-92-39-95l3-9 63 11c-11 56 3 136-11 194l-15 2-1-87c-17 0-31 0-47 2 1 32 0 63-7 87l-14 2c-3-49-2-103-2-155-1-22-14-25-36-31 9-19 43 0 62 1" id="Q"/><g id="g"><use transform="matrix(0.06172839506172839,0,0,0.06172839506172839,0,0)" xlink:href="#P"/><use transform="matrix(0.06172839506172839,0,0,0.06172839506172839,21.11111111111111,0)" xlink:href="#Q"/></g><path fill="#3a414a" d="M224-298c23 2 49 7 67 11-8 50 2 118-9 169l-15 2c-1-9-3-22-3-33l-94 6-9-20c32 4 71 2 103 0v-45c-30 0-58 3-84 7l-5-11c-35 51-84 95-145 120l-7-7c61-32 114-77 140-143-37 2-78 2-111 8l-14-22c51 2 108 5 151-5 19 8-5 30-9 41l84-1v-36c-2-22-21-25-44-32zM119 15c2-29 0-50-25-53l4-8c49 6 110 3 160 0l1-44c-49 3-104 0-147 8l-12-22c55 8 130 3 188 0-6 16-7 39-10 57l9-1-2 17-142 1c3 19-11 50 14 48 48-5 104 0 146-9l-5 22-162 2c-12 1-17-7-17-18" id="R"/><path fill="#3a414a" d="M207-298c22 2 48 7 67 11-6 42-2 96-3 144 23-1 47-4 70-8l-3 22h-67l-6 169-15 2-3-120-131 23-90 9-14-22c24 4 56 4 83 2-4-38 14-97-27-97 5-17 36-2 54-2-7 26-3 65-4 97 47-4 89-10 129-21v-168c-3-21-21-25-44-32zM29-246c55 7 116 4 171-5 15 36-17 99-25 138l-14 2c5-40 15-78 15-122l-135 9" id="S"/><g id="h"><use transform="matrix(0.06172839506172839,0,0,0.06172839506172839,0,0)" xlink:href="#P"/><use transform="matrix(0.06172839506172839,0,0,0.06172839506172839,21.11111111111111,0)" xlink:href="#Q"/><use transform="matrix(0.06172839506172839,0,0,0.06172839506172839,42.22222222222222,0)" xlink:href="#R"/><use transform="matrix(0.06172839506172839,0,0,0.06172839506172839,63.33333333333333,0)" xlink:href="#S"/></g><path fill="#333" d="M160-255c-8 24-20 43-34 61 26 21 53 41 84 60l-26 23c-24-26-44-43-69-68-29 35-66 58-104 83l-9-11c47-34 98-75 112-140-4-10-15-9-24-15l8-11zm26 174c-1-8-7-9-15-12 5-19 31-3 46-2-2 5-3 10-4 14 34 5 62 24 62 60 0 41-33 61-77 61s-77-20-77-61c0-37 29-56 65-60zm12 101c26 0 42-17 42-43s-16-43-42-43-43 17-43 43 17 43 43 43zm81-307c-7 25-3 62-4 94l68-8-3 27h-65c-1 31-1 65-6 90l-25 4c-5-54 1-118-2-176-1-20-21-24-44-30l6-13c26 2 50 9 75 12" id="T"/><path fill="#333" d="M246-245c-4 19-7 40-9 62l58-6-7 27-224 9-12-29 68 5c-5-24 2-59-29-57l2-12c20-1 38 1 56 3-4 21 1 44 2 65l55-3c0-28 12-58-21-61 4-22 43-4 61-3zM59-280c68 12 156 3 224-5l-7 27-204 7zM4-134l121 6 171-7c16-1 30-3 43-5l-4 29-139-1-2 37 78-4-10 79 13-1-6 26c-41-4-98-2-143-1l-2 13-22 4c-7-26-10-52-10-82 0-19-10-22-24-25l6-13c27 4 57 5 88 4v-36l-146 8zM127 6l107-4v-59l-108 2" id="U"/><path fill="#333" d="M172-251c-10 27-22 50-38 71 27 22 51 43 82 62l-26 23-67-71c-28 32-62 58-99 81l-8-10c49-37 96-83 112-149-6-8-15-10-25-15l8-11zm54 278c-38-4-98 19-99-15l-1-57c-3-14-16-13-30-18l6-13 60 7-1 70c0 19 26 11 43 9L317 0l-4 27h-87zm-4-326c26 2 49 10 75 12-11 73 4 167-10 243l-25 4-3-139c-24 3-55 2-76 8l-13-27 89 2v-60c-2-20-20-24-43-30" id="V"/><path fill="#333" d="M63-103c-25-39 18-131-40-131l6-12c49 7 107 3 150-5l-5 27c-32-2-58-1-86 1v38c31 1 61-4 88-9l-5 26-83 1c2 14-7 40 7 44 37-5 70-10 104-21v-98c0-22-19-23-36-29l6-13c22 3 47 8 66 13-3 25-3 53-3 81l36-2c-1-46 10-93-39-94l5-13 70 13c-8 61 3 137-11 196l-24 4-1-86-36 2c-1 29-1 60-8 83l-23 3-2-46c-33 13-72 23-110 31-12 3-21 1-26-4zm15 26c70 8 154 1 222-4-7 35 2 83-9 116l-23 3c-4-29-4-63-4-97L92-49" id="W"/><g id="i"><use transform="matrix(0.04938271604938272,0,0,0.04938271604938272,0,0)" xlink:href="#T"/><use transform="matrix(0.04938271604938272,0,0,0.04938271604938272,16.88888888888889,0)" xlink:href="#U"/><use transform="matrix(0.04938271604938272,0,0,0.04938271604938272,33.77777777777778,0)" xlink:href="#V"/><use transform="matrix(0.04938271604938272,0,0,0.04938271604938272,50.66666666666667,0)" xlink:href="#W"/></g><path fill="#3a414a" d="M153-256c-7 23-19 44-32 61 25 23 53 42 84 60l-20 19c-23-27-48-44-71-69-28 35-65 62-104 84l-6-7c49-34 96-75 115-139-4-10-16-11-26-18l6-7c20 6 35 8 54 16zm39 177c-1-8-7-9-15-12 4-14 23-1 35-1l-4 13c36 4 64 22 64 59 0 39-32 59-74 59-41 0-73-19-73-59 0-38 30-56 67-59zm6 103c30-1 48-17 48-46 0-30-20-47-48-47-29 0-49 18-49 47 0 28 19 46 49 46zm10-322c22 2 48 7 67 11-5 28-2 64-3 96 23-1 47-5 70-8l-3 22h-67l-6 91-15 2c-6-52 0-116-3-173-1-22-21-25-44-32" id="X"/><path fill="#3a414a" d="M195-254l49 7c-5 21-8 43-11 66l58-6-6 21-220 9-9-23c20 4 43 5 67 5-5-26 3-64-29-63 2-17 32-5 48-5-3 22 2 45 3 67l66-3c3-26 15-66-19-66zM64-278c67 11 150 1 216-6l-6 21h-80l-120 8zM7-131l243 1 86-7-3 23H191c0 14 1 31-2 42l80-5-11 82 14-2-5 20c-43-4-101-2-147-1 0 5-1 11-2 15l-14 2-8-79c-1-17-8-24-24-26l4-10c29 4 58 5 91 5l-1-44-150 9zm234 72l-121 2 1 66 118-3" id="Y"/><path fill="#3a414a" d="M141-236c-7 29-19 54-33 77 25 27 47 51 76 74l-19 18-64-81c-24 35-52 64-87 89l-7-6c50-43 84-90 100-161-5-10-15-10-25-17l6-8zm135-21c-1-22-16-25-39-32l4-9 62 11c-9 102 4 223-9 327l-15 2-3-76v-223zm-39-15c-9 93 4 207-10 300l-14 2-2-188c-22 0-39 3-58 6l-10-21c20 4 45 2 68 2-3-46 14-101-36-102l4-9c22 1 39 6 58 10" id="Z"/><g id="j"><use transform="matrix(0.06172839506172839,0,0,0.06172839506172839,0,0)" xlink:href="#X"/><use transform="matrix(0.06172839506172839,0,0,0.06172839506172839,21.11111111111111,0)" xlink:href="#Y"/><use transform="matrix(0.06172839506172839,0,0,0.06172839506172839,42.22222222222222,0)" xlink:href="#X"/><use transform="matrix(0.06172839506172839,0,0,0.06172839506172839,63.33333333333333,0)" xlink:href="#Z"/><use transform="matrix(0.06172839506172839,0,0,0.06172839506172839,84.44444444444444,0)" xlink:href="#L"/><use transform="matrix(0.06172839506172839,0,0,0.06172839506172839,105.55555555555556,0)" xlink:href="#G"/><use transform="matrix(0.06172839506172839,0,0,0.06172839506172839,126.66666666666666,0)" xlink:href="#M"/></g><path fill="#3a414a" d="M26-257c44 7 108 4 148-5l8 8c-13 29-28 53-49 75 26 21 49 34 81 52l-20 18-70-62c-30 30-70 60-110 75l-7-7c61-29 113-79 141-140l-108 7zM188-79c-2-8-7-9-16-12 5-13 24-1 36-1l-4 13c35 5 64 22 64 59 0 39-32 59-74 59-41 0-73-19-73-59 0-38 30-56 67-59zm6 103c29 0 48-17 48-46 0-30-20-47-48-47-29 0-49 18-49 47 0 28 19 46 49 46zm11-322c22 2 48 7 67 11-5 28-2 65-3 98 23-1 47-5 70-8l-4 22h-66l-6 88-16 2c-5-52 1-116-2-172-1-22-21-25-44-32" id="aa"/><path fill="#3a414a" d="M131-255l55 9c-10 50 3 122-9 173-11 3-18 3-17-12-31-1-67 1-98 2l-2 14-15 2c-3-43-1-90-2-136-1-20-10-21-29-27 6-18 37-2 55-1-5 13-4 33-4 51 34 0 62-2 95-5 3-34-1-60-33-60zM64-96c32 0 66-2 96-4v-69c-33-1-62 0-95 2zm139-202c22 2 48 7 67 11-7 37-3 83-4 126 23 0 50-3 72-7l-3 22h-69l-3 166c-1 8-2 15-3 20l-15 2-2-299c-3-21-21-25-44-32" id="ab"/><path fill="#3a414a" d="M10-135l214 2c11-37 18-81 24-123l-148 5-30 4-13-23c70 10 147-1 216-5l7 6c-8 44-24 97-40 135l94-8-4 23-141-1-5 159-16 2-2-160-147 8" id="ac"/><path fill="#3a414a" d="M88-101c0 10 5 13 13 12 55-5 113-19 158-34v-134c-3-21-21-25-44-32l4-9c22 2 48 7 67 11-10 101 6 226-10 327l-14 2c-6-45-2-103-3-154l-81 26c-33 6-76 26-108 15-13-31-3-89-6-130-1-21-16-23-36-27l3-9c24 0 40 2 60 6-6 38-1 87-3 130" id="ad"/><g id="k"><use transform="matrix(0.06172839506172839,0,0,0.06172839506172839,0,0)" xlink:href="#aa"/><use transform="matrix(0.06172839506172839,0,0,0.06172839506172839,21.11111111111111,0)" xlink:href="#ab"/><use transform="matrix(0.06172839506172839,0,0,0.06172839506172839,42.22222222222222,0)" xlink:href="#ac"/><use transform="matrix(0.06172839506172839,0,0,0.06172839506172839,63.33333333333333,0)" xlink:href="#ad"/></g><path fill="#3a414a" d="M30-231c39 7 90 4 126-5l9 8c-11 32-24 60-42 86 23 22 44 48 71 66l-20 17-58-73C90-97 60-68 25-44l-7-6c54-41 95-98 115-166-31 2-63 1-90 7zm209-41c-9 93 4 207-10 300l-13 2c-5-52-2-116-3-173-16 1-39 3-53 6l-10-20c18 4 42 2 63 2-5-49 19-116-35-118l3-9c23 1 39 6 58 10zm37 15c-1-22-16-25-39-32l4-9 62 11c-9 102 4 223-9 327l-15 2-3-76v-223" id="ae"/><g id="l"><use transform="matrix(0.06172839506172839,0,0,0.06172839506172839,0,0)" xlink:href="#R"/><use transform="matrix(0.06172839506172839,0,0,0.06172839506172839,21.11111111111111,0)" xlink:href="#ae"/></g><path fill="#3a414a" d="M42-190c0-19-11-22-25-26l3-9c51 6 104 4 154-1l-14 124 14-1-5 19c-33-2-68-3-101 0 2 13-5 16-15 17-10-35-11-82-11-123zm103-18c-25-2-56-1-79 1l3 111 72-4zm89-64c-8 34-3 82-4 123l46-3v-105c-1-22-16-25-39-32l4-9 62 11c-9 102 4 223-9 327l-15 2-3-179-46 2-6 163-14 2-3-77v-195c-1-22-13-25-35-31l4-9c22 1 39 6 58 10" id="af"/><g id="m"><use transform="matrix(0.06172839506172839,0,0,0.06172839506172839,0,0)" xlink:href="#ac"/><use transform="matrix(0.06172839506172839,0,0,0.06172839506172839,21.11111111111111,0)" xlink:href="#af"/></g><path fill="#3a414a" d="M205-298c22 2 48 7 67 11-5 28-2 64-3 97 23 0 48-3 70-7l-4 21h-66l-6 68-16 3c-5-45 1-103-2-152-1-22-21-25-44-32zM84-95c62 8 121 4 184-1L258 5l13-2-5 20c-41-4-93-2-137-1 0 6-1 11-2 15l-14 2c-6-29-9-66-9-98 0-19-9-23-24-27zm156 17l-111 2 1 85c35 1 77-1 109-3zM28-253c47 5 109 3 151-5l9 5C158-175 94-116 20-82l-7-7c60-34 113-83 140-150-37 2-77 1-110 8" id="ag"/><path fill="#3a414a" d="M98-257c20 6 35 8 54 16-8 25-19 50-34 73 28 28 58 55 92 80l-20 20-78-89c-27 39-58 72-98 99l-7-7c50-42 94-93 110-167-3-11-16-11-25-18zm177-30c-8 38-2 91-4 136 24 0 49-4 71-8l-3 23h-68l-3 156c-1 8-2 15-3 20l-15 2-3-76v-223c-2-22-20-25-43-32l3-9c22 2 49 7 68 11" id="ah"/><g id="n"><use transform="matrix(0.06172839506172839,0,0,0.06172839506172839,0,0)" xlink:href="#ag"/><use transform="matrix(0.06172839506172839,0,0,0.06172839506172839,21.11111111111111,0)" xlink:href="#ah"/><use transform="matrix(0.06172839506172839,0,0,0.06172839506172839,42.22222222222222,0)" xlink:href="#L"/><use transform="matrix(0.06172839506172839,0,0,0.06172839506172839,63.33333333333333,0)" xlink:href="#G"/><use transform="matrix(0.06172839506172839,0,0,0.06172839506172839,84.44444444444444,0)" xlink:href="#M"/></g><path fill="#3a414a" d="M209-298c22 2 48 7 67 11-7 38-3 86-4 130 23-1 48-4 71-8l-3 22h-68l-5 106-16 2-2-78L23-82 9-104c32 6 71 3 103 0v-38c-36-4-65-20-65-58 0-39 31-56 70-59-1-8-6-10-14-12 3-14 26-1 34-1l-4 13c34 6 65 21 65 59 0 36-29 52-62 58v36l113-16v-135c-3-21-21-25-44-32zm-86 142c30 0 51-16 51-45s-21-46-51-47c-31 0-50 18-50 47s20 45 50 45zm38 183c-23 0-54 11-54-14 0-35 0-60-31-61 5-19 38-2 56-3 2 21-16 66 16 65l115-4c14-1 25-2 35-4l-3 22c-43-3-90-1-134-1" id="ai"/><path fill="#3a414a" d="M103-168c2 25-13 62 14 62l80-1 85-8-5 22-36-1v64l91-7-4 23L50-9 24-6 14-31l106 5v-66c-22 1-43 5-42-17 1-32 5-66-25-68l3-8c54 6 125 3 181 0l3-60c-54-1-122-1-170 7l-13-22c64 8 148 3 214 0-7 22-8 50-13 74l14-1-2 17zm114 74l-73 2v66l73-2v-66" id="aj"/><g id="o"><use transform="matrix(0.06172839506172839,0,0,0.06172839506172839,0,0)" xlink:href="#ac"/><use transform="matrix(0.06172839506172839,0,0,0.06172839506172839,21.11111111111111,0)" xlink:href="#af"/><use transform="matrix(0.06172839506172839,0,0,0.06172839506172839,42.22222222222222,0)" xlink:href="#ai"/><use transform="matrix(0.06172839506172839,0,0,0.06172839506172839,63.33333333333333,0)" xlink:href="#aj"/></g><path d="M322-28c8-1 6 9 6 17 0 2-4 5-6 5H16c-6 0-5-10-5-17-1-3 2-6 5-5h128v-111c1-7 25-9 25 0v111h153zm-65-168c0-17 6-39-9-39H62c-8 1-6-9-6-17 0-2 3-6 6-5h191c34-3 28 31 28 62-1 40-6 81-12 117-1 8-13 4-20 4-4 0-5-2-4-6 7-32 12-77 12-116" id="ak"/><path d="M232-192h46v-84c0-8 11-6 19-6 3 0 5 3 5 6v187c0 8-12 4-19 5-3 0-5-2-5-5v-81h-46v76c0 8-12 4-19 5-3 0-5-2-5-5v-176c0-8 12-4 19-5 3 0 5 2 5 5v78zm-69-64c12 39-15 79-36 105-20 25-50 43-88 59-10 5-16-16-10-21 55-23 98-60 111-118 1-7-2-10-9-10H45c-7 0-4-10-5-17 0-3 2-4 5-4 38 3 91-7 118 6zM86-45c-7-2-8-22 0-22h188c50-2 20 74 28 114 0 8-13 4-20 5-3 0-5-2-5-5v-85c0-6-2-7-8-7H86" id="al"/><g id="p"><use transform="matrix(0.05,0,0,0.05,0,0)" xlink:href="#ak"/><use transform="matrix(0.05,0,0,0.05,16.900000000000002,0)" xlink:href="#al"/></g><path fill="#3a414a" d="M31-233s110 6 154-5l9 8C162-145 102-76 26-35l-8-8c44-26 81-63 108-105-35 2-65 7-96 11l-10-20 114-4c12-20 20-39 26-58l-115 8zm175-65c22 2 48 7 67 11-6 42-2 95-3 142 23 0 48-3 70-7l-4 22h-66l-6 170-15 2-3-76v-223c-3-21-21-25-44-32" id="am"/><path fill="#3a414a" d="M164-214c-32-2-58 1-87 2v59c23-1 43-4 66-9l-4 20-62 1c3 23-11 64 14 64 32 0 61-9 89-18l1 10c-33 13-62 22-99 27-23 4-29-4-29-25v-106c1-23-12-27-31-32l4-9c50 8 98 2 142-5zm72-58c-9 93 4 207-10 300l-14 2-2-179c-16 0-36 3-49 7l-8-20c15 4 40 2 57 1-4-48 16-110-36-112l4-9c22 1 39 6 58 10zm39 15c-1-22-16-25-39-32l4-9 62 11c-9 102 4 223-9 327l-15 2-3-76v-223" id="an"/><path fill="#3a414a" d="M86-144c2 28-14 74 14 74 57 0 118-16 165-31v-156c-2-22-21-25-44-32l4-9c23 2 49 7 68 11-12 98 4 223-10 327l-15 2-3-133C215-74 152-61 93-51c-63 11 0-95-56-102l3-8c44 5 85 5 127 1l4-69c-39-2-82 2-118 7l-12-22c48 7 110 6 159 0-6 26-9 55-13 83l13-2-2 17c-44-2-77 1-112 2" id="ao"/><g id="q"><use transform="matrix(0.06172839506172839,0,0,0.06172839506172839,0,0)" xlink:href="#am"/><use transform="matrix(0.06172839506172839,0,0,0.06172839506172839,21.11111111111111,0)" xlink:href="#an"/><use transform="matrix(0.06172839506172839,0,0,0.06172839506172839,42.22222222222222,0)" xlink:href="#N"/><use transform="matrix(0.06172839506172839,0,0,0.06172839506172839,63.33333333333333,0)" xlink:href="#ao"/></g><path fill="#3a414a" d="M239-272c-12 90 4 205-10 300l-14 2-3-181c-16 1-35 3-50 6l-4 43 14-1-5 19c-34-2-66-3-99 0 2 13-5 16-15 17-10-35-11-82-11-123 0-19-11-22-25-26l3-9c50 6 103 4 152-1l-8 64 48-1c-4-47 17-108-35-110l4-9c23 1 39 6 58 10zm-96 64c-25-2-54-1-77 1l3 111c24 0 48-1 70-3zm133-49c-1-22-16-25-39-32l4-9 62 11c-9 102 4 223-9 327l-15 2-3-76v-223" id="ap"/><path fill="#3a414a" d="M10-121l283-1c15-1 28-3 41-5l-4 23-91-1-5 144-15 2c-6-42-2-97-3-146l-80 2c-2 44 1 95-6 135l-15 2-2-137-94 7zm93-154c4 38-17 99 16 97l167-11-4 22-186 3c-29 0-18-47-18-76 0-23-15-28-34-32 6-20 41-1 59-3" id="aq"/><g id="r"><use transform="matrix(0.06172839506172839,0,0,0.06172839506172839,0,0)" xlink:href="#ap"/><use transform="matrix(0.06172839506172839,0,0,0.06172839506172839,21.11111111111111,0)" xlink:href="#aq"/></g><g id="s"><use transform="matrix(0.06172839506172839,0,0,0.06172839506172839,0,0)" xlink:href="#am"/><use transform="matrix(0.06172839506172839,0,0,0.06172839506172839,21.11111111111111,0)" xlink:href="#an"/><use transform="matrix(0.06172839506172839,0,0,0.06172839506172839,42.22222222222222,0)" xlink:href="#N"/><use transform="matrix(0.06172839506172839,0,0,0.06172839506172839,63.33333333333333,0)" xlink:href="#ao"/></g><g id="t"><use transform="matrix(0.06172839506172839,0,0,0.06172839506172839,0,0)" xlink:href="#X"/><use transform="matrix(0.06172839506172839,0,0,0.06172839506172839,21.11111111111111,0)" xlink:href="#Y"/></g><path fill="#3a414a" d="M63-279c65 6 142 4 205-2l-11 90 13-1-4 19-76-2v54l106-5c15-1 27-3 40-5l-3 23-290 5-27 3-9-24 160 3v-53l-58 1-2 11-14 2c-5-25-6-57-10-84 1-19-10-22-24-26zm177 17l-133 1 3 75 128-3zM66-67c67 7 140-2 208-4-5 33 2 77-8 107l-15 3c-3-30-4-61-3-94l-131 5c-16 0-24 3-40 5" id="ar"/><path fill="#3a414a" d="M109-211c0 20-9 46 14 44 52-4 112 0 158-9l-5 22h-86v40l106-4c15-1 27-3 40-5l-3 23-290 5-27 3-9-25 160 4v-41c-36-3-93 23-83-37 3-20-10-23-25-28l4-8c53 6 122 3 176 0l1-40c-54 3-116-1-164 8l-13-23c59 11 142 4 207 1l-10 52h10l-2 17zM67-66c66 6 144 1 208-5l-8 107-15 3c-3-29-4-60-3-93L77-45" id="as"/><g id="u"><use transform="matrix(0.06172839506172839,0,0,0.06172839506172839,0,0)" xlink:href="#ar"/><use transform="matrix(0.06172839506172839,0,0,0.06172839506172839,21.11111111111111,0)" xlink:href="#as"/></g><path fill="#3a414a" d="M114-248l55 8c-8 52 3 120-9 171-11 3-18 4-17-11l-75 2c-1 5-1 8-3 13l-14 2c-5-40-1-89-2-133-1-20-9-22-29-28 7-17 36-1 55-1-4 13-4 33-4 51 25 0 47-2 72-4 3-35-2-60-33-61zM70-91l73-5v-66c-26-1-46-2-72 1zm164-181c-8 34-3 82-4 123l46-3v-105c-1-22-16-25-39-32l4-9 62 11c-9 102 4 223-9 327l-15 2-3-179-46 2-6 163-14 2-3-77v-195c-1-22-13-25-35-31l4-9c22 1 39 6 58 10" id="at"/><g id="v"><use transform="matrix(0.06172839506172839,0,0,0.06172839506172839,0,0)" xlink:href="#ac"/><use transform="matrix(0.06172839506172839,0,0,0.06172839506172839,21.11111111111111,0)" xlink:href="#at"/><use transform="matrix(0.06172839506172839,0,0,0.06172839506172839,42.22222222222222,0)" xlink:href="#ag"/><use transform="matrix(0.06172839506172839,0,0,0.06172839506172839,63.33333333333333,0)" xlink:href="#ah"/><use transform="matrix(0.06172839506172839,0,0,0.06172839506172839,84.44444444444444,0)" xlink:href="#L"/><use transform="matrix(0.06172839506172839,0,0,0.06172839506172839,105.55555555555556,0)" xlink:href="#G"/><use transform="matrix(0.06172839506172839,0,0,0.06172839506172839,126.66666666666666,0)" xlink:href="#M"/></g><g id="w"><use transform="matrix(0.06172839506172839,0,0,0.06172839506172839,0,0)" xlink:href="#ai"/><use transform="matrix(0.06172839506172839,0,0,0.06172839506172839,21.11111111111111,0)" xlink:href="#aj"/></g></defs></g></svg>