<svg xmlns="http://www.w3.org/2000/svg" xmlns:xlink="http://www.w3.org/1999/xlink" xmlns:lucid="lucid" width="2420" height="800"><g transform="translate(-20 -20)" lucid:page-tab-id="0_0"><path d="M0 0h3677.73v1322.84H0z" fill="#fff"/><path d="M40 46a6 6 0 0 1 6-6h2368a6 6 0 0 1 6 6v748a6 6 0 0 1-6 6H46a6 6 0 0 1-6-6z" stroke="#3a414a" fill-opacity="0"/><path d="M140 166a6 6 0 0 1 6-6h178a6 6 0 0 1 6 6v8a14.48 14.48 0 0 1-4.24 10.24l-1.52 1.52A14.48 14.48 0 0 1 314 190H146a6 6 0 0 1-6-6z" fill="#fff"/><path d="M330 160v20l-10 10H140" stroke="#3a414a" fill="none"/><path d="M140 166a6 6 0 0 1 6-6h1148a6 6 0 0 1 6 6v208a6 6 0 0 1-6 6H146a6 6 0 0 1-6-6z" stroke="#3a414a" fill="none"/><use xlink:href="#a" transform="matrix(1,0,0,1,148,160) translate(0 19.444444444444443)"/><use xlink:href="#b" transform="matrix(1,0,0,1,148,160) translate(68.88888888888889 19.444444444444443)"/><path d="M120 506a6 6 0 0 1 6-6h128a6 6 0 0 1 6 6v8a14.48 14.48 0 0 1-4.24 10.24l-1.52 1.52A14.48 14.48 0 0 1 244 530H126a6 6 0 0 1-6-6z" fill="#fff"/><path d="M260 500v20l-10 10H120" stroke="#3a414a" fill="none"/><path d="M120 506a6 6 0 0 1 6-6h1188a6 6 0 0 1 6 6v228a6 6 0 0 1-6 6H126a6 6 0 0 1-6-6z" stroke="#3a414a" fill="none"/><use xlink:href="#c" transform="matrix(1,0,0,1,128,500) translate(0 19.444444444444443)"/><use xlink:href="#b" transform="matrix(1,0,0,1,128,500) translate(47.77777777777778 19.444444444444443)"/><path d="M1040 50h360v80h-360z" fill="none"/><use xlink:href="#d" transform="matrix(1,0,0,1,1040,50) translate(86.11111111111111 53.33333333333334)"/><path d="M258.32 320h-76.64c-.88 0-1.68-.76-1.68-1.7v-5.12c0-18.18 11.92-33.43 29.52-37.7.48-.1.88-.05 1.28.17 5.92 3.2 12.48 3.2 18.4 0 .4-.22.8-.26 1.2-.17 17.68 4.27 29.6 19.52 29.6 37.7v5.13c0 .94-.8 1.7-1.68 1.7zm-74.88-3.43h73.12v-3.4c.08-16.35-10.56-30.07-26.32-34.17-3.36 1.64-6.48 2.4-10.24 2.4s-6.88-.7-10.24-2.4c-15.76 4.1-26.4 17.82-26.32 34.18z" stroke="#fff" stroke-opacity="0" fill="#232f3e"/><path d="M220 281.3c-3.67 0-6.8-.8-10.03-2.56-9.95-5.58-13.5-18.2-7.93-28.17 5.58-9.95 18.17-13.5 28.1-7.93 6.72 3.76 10.56 10.33 10.56 18.05 0 7.76-3.92 14.36-10.74 18.04-3.22 1.73-6.32 2.56-9.95 2.56zm0-37.83c-6.6-.17-12.26 3.18-15.44 8.96-4.5 8.38-1.4 18.8 6.94 23.34 5.4 2.93 11.36 2.93 16.77 0 5.7-3.1 9-8.68 8.96-15.2-.04-9.5-7.76-17.14-17.22-17.1z" stroke="#fff" stroke-opacity="0" fill="#232f3e"/><use xlink:href="#e" transform="matrix(1,0,0,1,150,329) translate(38.333333333333336 17.77777777777778)"/><path d="M241.87 280h81.25" stroke="#3a414a" fill="none"/><path stroke="#3a414a" stroke-width=".05" fill="#3a414a"/><path d="M337.88 280l-14.26 4.63v-9.26z" stroke="#3a414a" fill="#3a414a"/><path d="M340 226a6 6 0 0 1 6-6h148a6 6 0 0 1 6 6v108a6 6 0 0 1-6 6H346a6 6 0 0 1-6-6z" stroke="#3a414a" fill="#fff"/><use xlink:href="#f" transform="matrix(1,0,0,1,351.99999999999994,232) translate(12.444444444444443 53.77777777777778)"/><use xlink:href="#g" transform="matrix(1,0,0,1,351.99999999999994,232) translate(102.44444444444444 53.77777777777778)"/><path d="M501 280h62.12" stroke="#3a414a" fill="none"/><path d="M501 280.5h-.5v-1h.5z" stroke="#3a414a" stroke-width=".05" fill="#3a414a"/><path d="M577.88 280l-14.26 4.63v-9.26z" stroke="#3a414a" fill="#3a414a"/><path d="M580 226a6 6 0 0 1 6-6h148a6 6 0 0 1 6 6v108a6 6 0 0 1-6 6H586a6 6 0 0 1-6-6z" stroke="#3a414a" fill="#fff"/><use xlink:href="#h" transform="matrix(1,0,0,1,592,232) translate(23 53.77777777777778)"/><use xlink:href="#i" transform="matrix(1,0,0,1,592,232) translate(70.77777777777777 53.77777777777778)"/><path d="M741 280h82.12" stroke="#3a414a" fill="none"/><path d="M741 280.5h-.5v-1h.5z" stroke="#3a414a" stroke-width=".05" fill="#3a414a"/><path d="M837.88 280l-14.26 4.63v-9.26z" stroke="#3a414a" fill="#3a414a"/><path d="M940 280c0 24.85-22.4 45-50 45s-50-20.15-50-45 22.4-45 50-45 50 20.15 50 45z" stroke="#3a414a" fill="#fff"/><use xlink:href="#j" transform="matrix(1,0,0,1,845,240) translate(13.333333333333336 17.77777777777778)"/><use xlink:href="#k" transform="matrix(1,0,0,1,845,240) translate(23.88888888888889 44.44444444444444)"/><use xlink:href="#l" transform="matrix(1,0,0,1,845,240) translate(23.88888888888889 71.11111111111111)"/><path d="M278.32 640h-76.64c-.88 0-1.68-.76-1.68-1.7v-5.12c0-18.18 11.92-33.43 29.52-37.7.48-.1.88-.05 1.28.17 5.92 3.2 12.48 3.2 18.4 0 .4-.22.8-.26 1.2-.17 17.68 4.27 29.6 19.52 29.6 37.7v5.13c0 .94-.8 1.7-1.68 1.7zm-74.88-3.43h73.12v-3.4c.08-16.35-10.56-30.07-26.32-34.17-3.36 1.64-6.48 2.4-10.24 2.4s-6.88-.7-10.24-2.4c-15.76 4.1-26.4 17.82-26.32 34.18z" stroke="#fff" stroke-opacity="0" fill="#232f3e"/><path d="M240 601.3c-3.67 0-6.8-.78-10.03-2.56-9.95-5.58-13.5-18.2-7.93-28.17 5.58-9.95 18.17-13.5 28.1-7.93 6.72 3.76 10.56 10.33 10.56 18.05 0 7.76-3.93 14.36-10.74 18.04-3.22 1.73-6.32 2.56-9.95 2.56zm0-37.83c-6.6-.17-12.26 3.18-15.44 8.96-4.5 8.4-1.4 18.8 6.94 23.34 5.4 2.93 11.36 2.93 16.77 0 5.7-3.1 9-8.68 8.96-15.2-.04-9.5-7.77-17.14-17.22-17.1z" stroke="#fff" stroke-opacity="0" fill="#232f3e"/><use xlink:href="#m" transform="matrix(1,0,0,1,170.00000000000003,649) translate(38.333333333333336 17.77777777777778)"/><path d="M261.87 600h81.25" stroke="#3a414a" fill="none"/><path stroke="#3a414a" stroke-width=".05" fill="#3a414a"/><path d="M357.88 600l-14.26 4.63v-9.26z" stroke="#3a414a" fill="#3a414a"/><path d="M360 546a6 6 0 0 1 6-6h148a6 6 0 0 1 6 6v108a6 6 0 0 1-6 6H366a6 6 0 0 1-6-6z" stroke="#3a414a" fill="#fff"/><use xlink:href="#f" transform="matrix(1,0,0,1,372.00000000000006,552) translate(12.444444444444443 53.77777777777778)"/><use xlink:href="#g" transform="matrix(1,0,0,1,372.00000000000006,552) translate(102.44444444444444 53.77777777777778)"/><path d="M521 600h62.12" stroke="#3a414a" fill="none"/><path d="M521 600.5h-.5v-1h.5z" stroke="#3a414a" stroke-width=".05" fill="#3a414a"/><path d="M597.88 600l-14.26 4.63v-9.26z" stroke="#3a414a" fill="#3a414a"/><path d="M600 546a6 6 0 0 1 6-6h148a6 6 0 0 1 6 6v108a6 6 0 0 1-6 6H606a6 6 0 0 1-6-6z" stroke="#3a414a" fill="#fff"/><use xlink:href="#n" transform="matrix(1,0,0,1,612,552) translate(1.8888888888888857 53.77777777777778)"/><use xlink:href="#o" transform="matrix(1,0,0,1,612,552) translate(91.88888888888889 53.77777777777778)"/><path d="M761 600h82.12" stroke="#3a414a" fill="none"/><path d="M761 600.5h-.5v-1h.5z" stroke="#3a414a" stroke-width=".05" fill="#3a414a"/><path d="M857.88 600l-14.26 4.63v-9.26z" stroke="#3a414a" fill="#3a414a"/><path d="M860 546a6 6 0 0 1 6-6h148a6 6 0 0 1 6 6v108a6 6 0 0 1-6 6H866a6 6 0 0 1-6-6z" stroke="#3a414a" fill="#fff"/><g><use xlink:href="#p" transform="matrix(1,0,0,1,872,552) translate(25.77777777777778 53.77777777777778)"/></g><path d="M1021 600h42.12" stroke="#3a414a" fill="none"/><path d="M1021 600.5h-.5v-1h.5z" stroke="#3a414a" stroke-width=".05" fill="#3a414a"/><path d="M1077.88 600l-14.26 4.63v-9.26z" stroke="#3a414a" fill="#3a414a"/><path d="M1080 546a6 6 0 0 1 6-6h148a6 6 0 0 1 6 6v108a6 6 0 0 1-6 6h-148a6 6 0 0 1-6-6z" stroke="#3a414a" fill="#fff"/><g><use xlink:href="#q" transform="matrix(1,0,0,1,1092,552) translate(23 38.77777777777778)"/><use xlink:href="#r" transform="matrix(1,0,0,1,1092,552) translate(70.77777777777777 38.77777777777778)"/><use xlink:href="#s" transform="matrix(1,0,0,1,1092,552) translate(46.888888888888886 65.44444444444446)"/></g><defs><path fill="#3a414a" d="M168-279c-2-6-7-8-15-11 4-14 25 0 38-1-2 4-5 8-5 13 37 5 69 21 69 59 0 42-38 60-82 60s-80-18-80-60c0-39 34-58 75-60zm7 106c31 0 55-17 55-47s-24-49-55-49c-32 0-56 17-56 49s25 47 56 47zM7-138c105 10 228 4 329-6l-3 23-142-1c-1 13 0 28-3 39 37 5 67 22 67 60 0 42-34 62-77 62s-76-21-76-62c0-38 30-55 66-60-3-11-2-25-2-39l-150 8zM178 24c31 0 52-17 52-48 0-30-22-48-52-48-29 0-51 17-51 48 0 32 22 48 51 48" id="t"/><path fill="#3a414a" d="M190-160c22 4 53 3 77 1v-66c-22 0-52 3-69 8l-10-21c21 4 55 2 79 1 4-37-14-44-44-52l4-9c22 2 48 7 67 11-11 57 3 139-9 199l-16 2-2-61c-21 1-51 4-69 8l-9-20c-24 54-153 49-149-27 2-40 32-60 73-63 0-11-20-9-12-20l33 7c-2 4-5 7-5 13 45 3 81 42 61 89zm-72 23c31 0 53-19 53-50s-21-51-53-51-53 20-53 51 22 50 53 50zm88 58c-1-8-7-9-15-12 4-14 23-1 35-1l-4 13c35 5 64 22 64 59 0 39-32 59-74 59s-73-19-73-59c0-38 30-56 67-59zm6 103c30 0 48-19 48-46 0-29-19-47-48-47s-49 18-49 47c0 28 18 46 49 46" id="u"/><path fill="#3a414a" d="M189-234c-13 35-32 68-55 95 26 24 53 43 84 62l-20 19-72-72C97-96 58-65 18-45l-7-7c63-40 118-94 143-171l-87 4-27 4-14-22c52 3 109 5 154-5zm15-64c22 2 48 7 67 11-6 40-2 91-3 136 23 0 50-4 71-8l-3 23h-68l-4 156c-1 8-2 15-3 20l-15 2-2-299c-3-21-21-25-44-32" id="v"/><g id="a"><use transform="matrix(0.06172839506172839,0,0,0.06172839506172839,0,0)" xlink:href="#t"/><use transform="matrix(0.06172839506172839,0,0,0.06172839506172839,21.11111111111111,0)" xlink:href="#u"/><use transform="matrix(0.06172839506172839,0,0,0.06172839506172839,42.22222222222222,0)" xlink:href="#v"/></g><path fill="#3a414a" d="M170-80c-2-9-6-10-16-13 7-12 25 0 38 0-2 4-4 8-5 14 36 5 66 19 66 58 0 42-35 60-76 60-42 0-76-20-76-60 0-38 32-55 69-59zm7 105c31 0 52-17 52-48 0-30-23-47-52-47s-51 16-51 47c0 32 22 48 51 48zm3-201c-40 0-98 18-98-18 0-37 7-76-30-76l4-9c64 9 154 6 217-2l-4 22c-52-4-112-3-163 1 5 25-14 71 17 70l152-9-4 22c-30-3-60-1-91-1zM7-136c104 9 230 5 329-7l-3 23-290 6-27 3" id="w"/><path fill="#3a414a" d="M109-211c0 20-9 46 14 44 52-4 112 0 158-9l-5 22h-86v40l106-4c15-1 27-3 40-5l-3 23-290 5-27 3-9-25 160 4v-41c-36-3-93 23-83-37 3-20-10-23-25-28l4-8c53 6 122 3 176 0l1-40c-54 3-116-1-164 8l-13-23c59 11 142 4 207 1l-10 52h10l-2 17zM67-66c66 6 144 1 208-5l-8 107-15 3c-3-29-4-60-3-93L77-45" id="x"/><g id="b"><use transform="matrix(0.06172839506172839,0,0,0.06172839506172839,0,0)" xlink:href="#w"/><use transform="matrix(0.06172839506172839,0,0,0.06172839506172839,21.11111111111111,0)" xlink:href="#x"/></g><path fill="#3a414a" d="M153-256c-7 23-19 44-32 61 25 23 53 42 84 60l-20 19c-23-27-48-44-71-69-28 35-65 62-104 84l-6-7c49-34 96-75 115-139-4-10-16-11-26-18l6-7c20 6 35 8 54 16zm39 177c-1-8-7-9-15-12 4-14 23-1 35-1l-4 13c36 4 64 22 64 59 0 39-32 59-74 59-41 0-73-19-73-59 0-38 30-56 67-59zm6 103c30-1 48-17 48-46 0-30-20-47-48-47-29 0-49 18-49 47 0 28 19 46 49 46zm10-322c22 2 48 7 67 11-5 28-2 64-3 96 23-1 47-5 70-8l-3 22h-67l-6 91-15 2c-6-52 0-116-3-173-1-22-21-25-44-32" id="y"/><path fill="#3a414a" d="M195-254l49 7c-5 21-8 43-11 66l58-6-6 21-220 9-9-23c20 4 43 5 67 5-5-26 3-64-29-63 2-17 32-5 48-5-3 22 2 45 3 67l66-3c3-26 15-66-19-66zM64-278c67 11 150 1 216-6l-6 21h-80l-120 8zM7-131l243 1 86-7-3 23H191c0 14 1 31-2 42l80-5-11 82 14-2-5 20c-43-4-101-2-147-1 0 5-1 11-2 15l-14 2-8-79c-1-17-8-24-24-26l4-10c29 4 58 5 91 5l-1-44-150 9zm234 72l-121 2 1 66 118-3" id="z"/><g id="c"><use transform="matrix(0.06172839506172839,0,0,0.06172839506172839,0,0)" xlink:href="#y"/><use transform="matrix(0.06172839506172839,0,0,0.06172839506172839,21.11111111111111,0)" xlink:href="#z"/></g><path fill="#3a414a" d="M284-213c-6 51-56 65-114 65-59 0-109-14-115-65 6-52 57-67 115-67 57 0 108 15 114 67zm-44 0c-11-48-131-46-142 0 11 45 131 45 142 0zm85 92c11 2 9 34 0 34H192v66c-3 11-25 3-36 5-3 0-5-2-5-5v-66H12c-9-1-4-19-5-29-1-3 2-6 5-5h313zM286 14c11 2 9 34 0 34H82C36 50 62-17 55-54c4-8 36-9 41 0V8c0 4 2 7 7 6h183" id="A"/><path fill="#3a414a" d="M28-189c0-87 118-108 158-50h70c2-14-5-39 4-46 12 2 33-5 37 5v191c-3 11-25 3-37 5-9-8-2-33-4-48h-76c-45 48-152 24-152-57zM85-11c4-97 213-87 215 0-6 91-211 94-215 0zm42 1c6 48 124 47 130 0-4-51-127-49-130 0zm-13-131c28 1 48-19 48-48 0-28-20-47-48-47-27 0-46 20-46 47 0 28 19 48 46 48zm87-65c3 14 2 29-2 41h57v-41h-55" id="B"/><path fill="#3a414a" d="M123-111C97-81 67-48 26-28c-8-7-27-24-16-32 53-40 110-87 125-161-28-5-68 0-100-2-8-3-9-31 1-35h117c19 0 33 9 29 29-7 33-20 61-35 87 19 29 47 53 73 75 0 11-12 16-17 24-33 3-56-47-80-68zm208-42c9 5 8 32 0 35h-49V52c-3 11-25 3-37 5-3 0-5-2-5-5v-332c3-11 25-3 37-5 3 0 5 2 5 5v127h49" id="C"/><g id="d"><use transform="matrix(0.1851851851851852,0,0,0.1851851851851852,0,0)" xlink:href="#A"/><use transform="matrix(0.1851851851851852,0,0,0.1851851851851852,62.592592592592595,0)" xlink:href="#B"/><use transform="matrix(0.1851851851851852,0,0,0.1851851851851852,125.18518518518519,0)" xlink:href="#C"/></g><path fill="#3a414a" d="M168-273c0-10-20-8-12-18l35 5-6 14c40 4 73 22 73 60 0 81-165 83-165 0 0-41 35-57 75-61zm8 108c33-1 56-16 56-48s-24-49-56-49-57 18-57 49 23 48 57 48zM146 27c-25 0-56 11-56-14 0-36 4-68-30-69 5-18 38-2 56-2-2 19-2 39-2 60s33 12 52 12c42 0 91-3 128-8l-5 22c-44-3-97-1-143-1zM7-118l243 1 86-8-3 23-137-1c0 26-1 56-5 77l-16 2-3-78-156 8" id="D"/><g id="e"><use transform="matrix(0.06172839506172839,0,0,0.06172839506172839,0,0)" xlink:href="#D"/><use transform="matrix(0.06172839506172839,0,0,0.06172839506172839,21.11111111111111,0)" xlink:href="#u"/><use transform="matrix(0.06172839506172839,0,0,0.06172839506172839,42.22222222222222,0)" xlink:href="#v"/></g><path fill="#3a414a" d="M123-188c-4 24-3 52-3 79 47-3 90-9 130-18v-130c-3-21-21-25-44-32l4-9c22 2 48 7 67 11-8 35-2 84-4 126l70-7-3 21h-67l-5 103-16 3-2-76L23-86 9-108c27 5 60 3 88 1-1-35 9-79-27-78 4-19 35-3 53-3zm54-52c-39-1-74 5-110 5-8 0-17 2-26 4l-12-23c55 7 116 3 171-4l7 6-27 108-14 1c5-28 10-64 11-97zM161 27c-23 0-54 11-54-14 1-37 4-70-31-70 5-18 39-1 57-2-4 16-1 41-2 61-1 21 32 12 50 12 39 0 83-3 118-8l-4 22c-43-3-90-1-134-1" id="E"/><path fill="#3a414a" d="M86-144c2 28-14 74 14 74 57 0 118-16 165-31v-156c-2-22-21-25-44-32l4-9c23 2 49 7 68 11-12 98 4 223-10 327l-15 2-3-133C215-74 152-61 93-51c-63 11 0-95-56-102l3-8c44 5 85 5 127 1l4-69c-39-2-82 2-118 7l-12-22c48 7 110 6 159 0-6 26-9 55-13 83l13-2-2 17c-44-2-77 1-112 2" id="F"/><g id="f"><use transform="matrix(0.06172839506172839,0,0,0.06172839506172839,0,0)" xlink:href="#D"/><use transform="matrix(0.06172839506172839,0,0,0.06172839506172839,21.11111111111111,0)" xlink:href="#u"/><use transform="matrix(0.06172839506172839,0,0,0.06172839506172839,42.22222222222222,0)" xlink:href="#E"/><use transform="matrix(0.06172839506172839,0,0,0.06172839506172839,63.33333333333333,0)" xlink:href="#F"/></g><path fill="#3a414a" d="M245-176c0 33-29 47-60 52v23l111-4c15-1 27-3 40-5l-3 23-290 5-27 3-9-25 155 4v-24c-33-5-63-18-63-52 0-72 146-70 146 0zm-73-41c-27 0-46 13-46 40 0 26 20 39 46 39 27 0 47-12 47-39 0-26-21-40-47-40zm-58-75c32 7 77 5 110 0l-4 17-96 3zm174 49l-230 8-10-21c78 9 170-1 246-7zM76-64c61 8 131 4 193-1L258 7l14-1-5 19H120c0 5-1 10-2 14l-14 2c-9-34 5-90-32-96zm165 17l-121 2 1 57 118-3" id="G"/><use transform="matrix(0.06172839506172839,0,0,0.06172839506172839,0,0)" xlink:href="#G" id="g"/><path fill="#3a414a" d="M23-157c48 7 108 1 154-3 7-25 12-56 14-85l-124 9-12-22c54 4 108 5 159-5l6 6c-6 33-15 70-27 95l58-9v10l-102 16c-1 24 1 53-5 71-8 1-18 6-16-7-4-17-3-39-3-61l-89 8zM223 26c-38-3-91 18-98-13 1-35 3-66-30-67 5-18 38-2 56-2 2 22-17 71 15 70l117-4c14-1 26-2 36-4l-4 22c-29-3-61 0-92-2zm78-313c-12 71 5 172-10 245l-15 2-2-59c-28 0-62 2-84 7l-9-21c25 6 64 2 93 1v-145c-3-21-21-25-44-32l4-9c22 2 48 7 67 11" id="H"/><path fill="#3a414a" d="M207-298c22 2 48 7 67 11-6 36-2 82-3 123 23-1 47-5 70-8l-4 22h-66l-6 105-15 2c-5-67 0-142-3-214-1-22-21-25-44-32zM166 27c-22-1-53 11-53-14 2-37 3-68-31-69 7-17 39-1 57-2-4 16-1 40-2 60-2 21 32 9 49 12L297 4l-4 22zm-49-221c39 0 71 19 71 56 0 72-141 72-141 0 0-37 31-56 70-56zm1 12c-27 0-45 16-45 42s17 44 45 44c27 0 44-17 44-44 0-26-17-42-44-42zM13-230c63 8 144 3 204-6l-4 20-189 8zm53-44c28 9 67 6 99 1l-4 17-85 3" id="I"/><g id="h"><use transform="matrix(0.06172839506172839,0,0,0.06172839506172839,0,0)" xlink:href="#H"/><use transform="matrix(0.06172839506172839,0,0,0.06172839506172839,21.11111111111111,0)" xlink:href="#I"/></g><path fill="#3a414a" d="M167-254c-2-9-7-11-17-14 6-13 26-1 39-1-2 5-5 9-5 16 43 5 77 26 77 71 0 34-26 58-54 66l43 4c-2 24-10 58-6 80l88-8-4 23-251 4-53 4-10-24 109 5c-3-32 6-73-30-72 3-19 37-4 55-5-7 21-2 51-2 76l73-2c1-32 17-79-24-76l3-6c-58 11-113-14-113-69 0-46 35-69 82-72zm6 129c37 0 61-21 61-58s-25-59-61-59-61 23-61 59c0 35 24 58 61 58" id="J"/><path fill="#3a414a" d="M43-231c47 4 107 6 147-5l9 8c-14 24-31 45-50 63 24 19 49 33 80 45l-20 18-69-54c-31 30-71 50-111 68l-7-7c58-28 105-69 140-122l-106 7zM209-76c-1-7-7-10-15-12 5-12 23 0 36 0-2 4-4 7-5 12 35 5 64 20 64 58 0 39-33 57-73 57-42 0-74-19-74-57 0-37 29-56 67-58zm6 101c28 0 49-16 49-45 0-28-20-45-49-45s-48 16-48 45 20 45 48 45zM76-278c28 9 65 6 97 1l-5 17-82 3zm219-9c-11 59 4 143-10 205l-15 2c-4-24-1-59-2-88-26 0-52 2-73 6l-9-20c22 4 55 1 82 2v-77c-3-21-21-25-44-32l3-9c23 2 49 7 68 11" id="K"/><g id="i"><use transform="matrix(0.06172839506172839,0,0,0.06172839506172839,0,0)" xlink:href="#J"/><use transform="matrix(0.06172839506172839,0,0,0.06172839506172839,21.11111111111111,0)" xlink:href="#K"/></g><g id="j"><use transform="matrix(0.06172839506172839,0,0,0.06172839506172839,0,0)" xlink:href="#D"/><use transform="matrix(0.06172839506172839,0,0,0.06172839506172839,21.11111111111111,0)" xlink:href="#u"/><use transform="matrix(0.06172839506172839,0,0,0.06172839506172839,42.22222222222222,0)" xlink:href="#v"/></g><g id="k"><use transform="matrix(0.06172839506172839,0,0,0.06172839506172839,0,0)" xlink:href="#w"/><use transform="matrix(0.06172839506172839,0,0,0.06172839506172839,21.11111111111111,0)" xlink:href="#x"/></g><path fill="#3a414a" d="M209-298c22 2 48 7 67 11-7 38-3 86-4 130 23-1 48-4 71-8l-3 22h-68l-5 106-16 2-2-78L23-82 9-104c32 6 71 3 103 0v-38c-36-4-65-20-65-58 0-39 31-56 70-59-1-8-6-10-14-12 3-14 26-1 34-1l-4 13c34 6 65 21 65 59 0 36-29 52-62 58v36l113-16v-135c-3-21-21-25-44-32zm-86 142c30 0 51-16 51-45s-21-46-51-47c-31 0-50 18-50 47s20 45 50 45zm38 183c-23 0-54 11-54-14 0-35 0-60-31-61 5-19 38-2 56-3 2 21-16 66 16 65l115-4c14-1 25-2 35-4l-3 22c-43-3-90-1-134-1" id="L"/><path fill="#3a414a" d="M103-168c2 25-13 62 14 62l80-1 85-8-5 22-36-1v64l91-7-4 23L50-9 24-6 14-31l106 5v-66c-22 1-43 5-42-17 1-32 5-66-25-68l3-8c54 6 125 3 181 0l3-60c-54-1-122-1-170 7l-13-22c64 8 148 3 214 0-7 22-8 50-13 74l14-1-2 17zm114 74l-73 2v66l73-2v-66" id="M"/><g id="l"><use transform="matrix(0.06172839506172839,0,0,0.06172839506172839,0,0)" xlink:href="#L"/><use transform="matrix(0.06172839506172839,0,0,0.06172839506172839,21.11111111111111,0)" xlink:href="#M"/></g><path fill="#3a414a" d="M133-219l48 7c-7 28-8 62-10 95 27-3 52-8 76-13v-127c-2-22-20-25-43-32l3-9c22 2 49 7 68 11-8 32-3 77-4 116 22-1 47-4 69-8l-4 22h-65c-2 37 1 79-6 112l-15 2-3-77c-70 18-143 24-217 32l-13-23c19 3 42 2 64 2-7-34 9-90-30-93l2-9 44 3c-3 33 4 66 5 98l49-5c-2-37 19-93-21-95zm71-13l-168 9-10-22c60 10 124 0 183-8zm1 258c-36-4-87 17-93-13 0-36 5-72-30-72 5-19 38 0 56-3-2 20-2 42-2 64-1 20 31 9 49 12 37-3 79-3 111-10l-4 22h-87" id="N"/><path fill="#3a414a" d="M42-190c0-19-11-22-25-26l3-9c51 6 104 4 154-1l-14 124 14-1-5 19c-33-2-68-3-101 0 2 13-5 16-15 17-10-35-11-82-11-123zm103-18c-25-2-56-1-79 1l3 111 72-4zm89-64c-8 34-3 82-4 123l46-3v-105c-1-22-16-25-39-32l4-9 62 11c-9 102 4 223-9 327l-15 2-3-179-46 2-6 163-14 2-3-77v-195c-1-22-13-25-35-31l4-9c22 1 39 6 58 10" id="O"/><g id="m"><use transform="matrix(0.06172839506172839,0,0,0.06172839506172839,0,0)" xlink:href="#N"/><use transform="matrix(0.06172839506172839,0,0,0.06172839506172839,21.11111111111111,0)" xlink:href="#O"/><use transform="matrix(0.06172839506172839,0,0,0.06172839506172839,42.22222222222222,0)" xlink:href="#v"/></g><path fill="#3a414a" d="M221-262c-51 0-96 6-145 8l-13-22c59 9 138 3 194-5l8 9c-22 24-47 46-77 63 33 13 78 21 118 27l-16 20-116-39c-40 21-84 38-131 50l-7-8c72-22 139-56 185-103zM10-118l237 1 87-8-4 23-139-1-6 142-16 2-2-143-148 8" id="P"/><path fill="#3a414a" d="M63-277c64 9 139 2 206-1l-13 97 14-1-4 19c-46-4-109-3-156 0l-2 10-14 3c-13-37 9-111-35-118zm177 17l-132 2 3 82 126-4zM7-121c104 9 229 4 329-6l-3 23-137-1c0 26-1 57-5 78l-16 2-3-80-156 9zM146 27c-25 0-56 11-56-14 0-36 5-72-30-72 5-19 38 0 56-3-2 20-2 42-2 64 0 21 33 12 52 12 42 0 91-3 128-8l-5 22c-44-3-97-1-143-1" id="Q"/><g id="n"><use transform="matrix(0.06172839506172839,0,0,0.06172839506172839,0,0)" xlink:href="#P"/><use transform="matrix(0.06172839506172839,0,0,0.06172839506172839,21.11111111111111,0)" xlink:href="#Q"/><use transform="matrix(0.06172839506172839,0,0,0.06172839506172839,42.22222222222222,0)" xlink:href="#E"/><use transform="matrix(0.06172839506172839,0,0,0.06172839506172839,63.33333333333333,0)" xlink:href="#F"/></g><path fill="#3a414a" d="M63-279c65 6 142 4 205-2l-11 90 13-1-4 19-76-2v54l106-5c15-1 27-3 40-5l-3 23-290 5-27 3-9-24 160 3v-53l-58 1-2 11-14 2c-5-25-6-57-10-84 1-19-10-22-24-26zm177 17l-133 1 3 75 128-3zM66-67c67 7 140-2 208-4-5 33 2 77-8 107l-15 3c-3-30-4-61-3-94l-131 5c-16 0-24 3-40 5" id="R"/><g id="o"><use transform="matrix(0.06172839506172839,0,0,0.06172839506172839,0,0)" xlink:href="#R"/><use transform="matrix(0.06172839506172839,0,0,0.06172839506172839,21.11111111111111,0)" xlink:href="#x"/></g><path fill="#3a414a" d="M225-298c23 2 49 7 67 11-8 53 3 124-9 178l-15 2c-3-17-3-41-3-62-28 0-61 2-85 6l-10-21c26 6 65 2 95 1v-74c-3-21-21-25-44-32zM39-253c47 5 109 4 150-5l9 5c-29 78-94 136-167 171l-7-7c61-34 112-84 140-150-37 2-78 2-111 8zm63 158c62 8 124 4 187-1L279 5l13-2-5 20c-41-4-96-2-140-1 0 5-2 11-3 15l-13 2c-7-29-9-65-9-98 0-19-9-23-24-27zm159 17l-115 2 2 85 112-3" id="S"/><path fill="#3a414a" d="M91-265l52 15c-8 24-18 44-29 62 21 24 47 47 75 65l-20 17-62-71c-24 35-55 62-91 85l-5-7c44-36 84-77 98-141-3-10-15-12-24-18zM271-64L94-54 83-76c68 7 147 0 214-4-6 35 3 81-8 114l-15 2c-5-28-3-66-3-100zm-40-208c-3 25-3 53-3 81 17 0 32 0 47-3 0-47 9-92-39-95l3-9 63 11c-11 56 3 136-11 194l-15 2-1-87c-17 0-31 0-47 2 1 32 0 63-7 87l-14 2c-3-49-2-103-2-155-1-22-14-25-36-31 9-19 43 0 62 1" id="T"/><g id="p"><use transform="matrix(0.06172839506172839,0,0,0.06172839506172839,0,0)" xlink:href="#P"/><use transform="matrix(0.06172839506172839,0,0,0.06172839506172839,21.11111111111111,0)" xlink:href="#Q"/><use transform="matrix(0.06172839506172839,0,0,0.06172839506172839,42.22222222222222,0)" xlink:href="#S"/><use transform="matrix(0.06172839506172839,0,0,0.06172839506172839,63.33333333333333,0)" xlink:href="#T"/></g><g id="q"><use transform="matrix(0.06172839506172839,0,0,0.06172839506172839,0,0)" xlink:href="#P"/><use transform="matrix(0.06172839506172839,0,0,0.06172839506172839,21.11111111111111,0)" xlink:href="#Q"/></g><path fill="#3a414a" d="M141-236c-7 29-19 54-33 77 25 27 47 51 76 74l-19 18-64-81c-24 35-52 64-87 89l-7-6c50-43 84-90 100-161-5-10-15-10-25-17l6-8zm135-21c-1-22-16-25-39-32l4-9 62 11c-9 102 4 223-9 327l-15 2-3-76v-223zm-39-15c-9 93 4 207-10 300l-14 2-2-188c-22 0-39 3-58 6l-10-21c20 4 45 2 68 2-3-46 14-101-36-102l4-9c22 1 39 6 58 10" id="U"/><g id="r"><use transform="matrix(0.06172839506172839,0,0,0.06172839506172839,0,0)" xlink:href="#y"/><use transform="matrix(0.06172839506172839,0,0,0.06172839506172839,21.11111111111111,0)" xlink:href="#U"/></g><path fill="#3a414a" d="M295-287c-11 58 3 139-10 201l-15 2c-4-29-3-65-3-98-25 1-49 3-70 7l-10-20c22 4 55 2 80 1v-63c-3-21-21-25-44-32l4-9c23 2 49 7 68 11zM211-79c-1-8-8-9-16-12 5-14 24-1 36 0l-4 13c35 4 64 21 64 58 0 39-32 59-74 59-41 0-73-19-73-59 0-38 30-55 67-59zm6 103c28 0 48-17 48-46 0-28-19-46-48-46-30 0-49 18-49 46 0 29 20 46 49 46zM42-256c43 7 105 4 146-4l8 8c-12 29-29 52-49 74 24 20 47 34 77 51l-20 18-65-60c-30 31-68 58-108 75l-7-8c60-29 111-78 137-139-26 1-54 0-78 4-10 0-19 2-27 3" id="V"/><path fill="#3a414a" d="M211-273c21 2 36 3 56 8-9 51 4 120-9 171-10 2-19 4-16-12h-54v77l102-5c15-1 29-3 42-5l-4 23-251 4-53 4-10-24 151 4v-77c-21 0-42 0-61 2l-2 13-15 2c-5-40-1-91-2-135-1-21-10-22-30-27l4-9 52 7c-5 14-4 35-4 54l133-5c2-35 1-59-33-61zm29 152v-66l-133 2c-1 23 2 49-2 68" id="W"/><g id="s"><use transform="matrix(0.06172839506172839,0,0,0.06172839506172839,0,0)" xlink:href="#V"/><use transform="matrix(0.06172839506172839,0,0,0.06172839506172839,21.11111111111111,0)" xlink:href="#W"/></g></defs></g></svg>