<svg xmlns="http://www.w3.org/2000/svg" xmlns:xlink="http://www.w3.org/1999/xlink" xmlns:lucid="lucid" width="2420" height="800"><g transform="translate(0 -820)" lucid:page-tab-id="0_0"><path d="M0 0h3677.73v2581.67H0z" fill="#fff"/><path d="M20 846a6 6 0 0 1 6-6h2368a6 6 0 0 1 6 6v748a6 6 0 0 1-6 6H26a6 6 0 0 1-6-6z" stroke="#3a414a" fill-opacity="0"/><path d="M120 966a6 6 0 0 1 6-6h178a6 6 0 0 1 6 6v8a14.48 14.48 0 0 1-4.24 10.24l-1.52 1.52A14.48 14.48 0 0 1 294 990H126a6 6 0 0 1-6-6z" fill="#fff"/><path d="M310 960v20l-10 10H120" stroke="#3a414a" fill="none"/><path d="M120 966a6 6 0 0 1 6-6h1148a6 6 0 0 1 6 6v208a6 6 0 0 1-6 6H126a6 6 0 0 1-6-6z" stroke="#3a414a" fill="none"/><use xlink:href="#a" transform="matrix(1,0,0,1,128,960) translate(0 19.444444444444443)"/><use xlink:href="#b" transform="matrix(1,0,0,1,128,960) translate(68.88888888888889 19.444444444444443)"/><path d="M100 1306a6 6 0 0 1 6-6h128a6 6 0 0 1 6 6v8a14.48 14.48 0 0 1-4.24 10.24l-1.52 1.52A14.48 14.48 0 0 1 224 1330H106a6 6 0 0 1-6-6z" fill="#fff"/><path d="M240 1300v20l-10 10H100" stroke="#3a414a" fill="none"/><path d="M100 1306a6 6 0 0 1 6-6h1188a6 6 0 0 1 6 6v228a6 6 0 0 1-6 6H106a6 6 0 0 1-6-6z" stroke="#3a414a" fill="none"/><use xlink:href="#c" transform="matrix(1,0,0,1,108,1300) translate(0 19.444444444444443)"/><use xlink:href="#d" transform="matrix(1,0,0,1,108,1300) translate(47.77777777777778 19.444444444444443)"/><path d="M1020 850h360v80h-360z" fill="none"/><use xlink:href="#e" transform="matrix(1,0,0,1,1020,850) translate(86.11111111111111 53.33333333333334)"/><path d="M238.32 1120h-76.64c-.88 0-1.68-.76-1.68-1.7v-5.12c0-18.18 11.92-33.43 29.52-37.7.48-.1.88-.05 1.28.17 5.92 3.2 12.48 3.2 18.4 0 .4-.22.8-.26 1.2-.18 17.68 4.28 29.6 19.53 29.6 37.7v5.14c0 .94-.8 1.7-1.68 1.7zm-74.88-3.43h73.12v-3.4c.08-16.35-10.56-30.07-26.32-34.17-3.36 1.64-6.48 2.4-10.24 2.4s-6.88-.7-10.24-2.4c-15.76 4.1-26.4 17.82-26.32 34.18z" stroke="#fff" stroke-opacity="0" fill="#232f3e"/><path d="M200 1081.3c-3.67 0-6.8-.78-10.03-2.56-9.95-5.58-13.5-18.2-7.93-28.17 5.58-9.95 18.17-13.5 28.1-7.93 6.72 3.76 10.56 10.33 10.56 18.05 0 7.76-3.92 14.36-10.74 18.04-3.22 1.73-6.32 2.56-9.95 2.56zm0-37.83c-6.6-.17-12.26 3.18-15.44 8.96-4.5 8.38-1.4 18.8 6.94 23.34 5.4 2.93 11.36 2.93 16.77 0 5.7-3.1 9-8.68 8.96-15.2-.04-9.5-7.76-17.14-17.22-17.1z" stroke="#fff" stroke-opacity="0" fill="#232f3e"/><use xlink:href="#f" transform="matrix(1,0,0,1,130,1129) translate(38.333333333333336 17.77777777777778)"/><path d="M221.87 1080h81.25" stroke="#3a414a" fill="none"/><path stroke="#3a414a" stroke-width=".05" fill="#3a414a"/><path d="M317.88 1080l-14.26 4.63v-9.27z" stroke="#3a414a" fill="#3a414a"/><path d="M320 1026a6 6 0 0 1 6-6h148a6 6 0 0 1 6 6v108a6 6 0 0 1-6 6H326a6 6 0 0 1-6-6z" stroke="#3a414a" fill="#fff"/><use xlink:href="#g" transform="matrix(1,0,0,1,332,1032) translate(25.77777777777778 53.77777777777778)"/><path d="M481 1080h62.12" stroke="#3a414a" fill="none"/><path d="M481 1080.5h-.5v-1h.5z" stroke="#3a414a" stroke-width=".05" fill="#3a414a"/><path d="M557.88 1080l-14.26 4.63v-9.27z" stroke="#3a414a" fill="#3a414a"/><path d="M560 1026a6 6 0 0 1 6-6h148a6 6 0 0 1 6 6v108a6 6 0 0 1-6 6H566a6 6 0 0 1-6-6z" stroke="#3a414a" fill="#fff"/><use xlink:href="#h" transform="matrix(1,0,0,1,572,1032) translate(25.77777777777778 53.77777777777778)"/><path d="M721 1080h82.12" stroke="#3a414a" fill="none"/><path d="M721 1080.5h-.5v-1h.5z" stroke="#3a414a" stroke-width=".05" fill="#3a414a"/><path d="M817.88 1080l-14.26 4.63v-9.27z" stroke="#3a414a" fill="#3a414a"/><path d="M820 1026a6 6 0 0 1 6-6h148a6 6 0 0 1 6 6v108a6 6 0 0 1-6 6H826a6 6 0 0 1-6-6z" stroke="#3a414a" fill="#fff"/><use xlink:href="#a" transform="matrix(1,0,0,1,832,1032) translate(9.666666666666671 26.77777777777778)"/><use xlink:href="#i" transform="matrix(1,0,0,1,832,1032) translate(78.55555555555556 26.77777777777778)"/><use xlink:href="#j" transform="matrix(1,0,0,1,832,1032) translate(23 53.44444444444445)"/><use xlink:href="#k" transform="matrix(1,0,0,1,832,1032) translate(70.77777777777777 53.44444444444445)"/><use xlink:href="#d" transform="matrix(1,0,0,1,832,1032) translate(46.888888888888886 80.11111111111111)"/><path d="M981 1080h82.12" stroke="#3a414a" fill="none"/><path d="M981 1080.5h-.5v-1h.5z" stroke="#3a414a" stroke-width=".05" fill="#3a414a"/><path d="M1077.88 1080l-14.26 4.63v-9.27z" stroke="#3a414a" fill="#3a414a"/><path d="M1180 1080c0 24.85-22.4 45-50 45s-50-20.15-50-45 22.4-45 50-45 50 20.15 50 45z" stroke="#3a414a" fill="#fff"/><use xlink:href="#l" transform="matrix(1,0,0,1,1085,1040) translate(13.333333333333336 17.77777777777778)"/><use xlink:href="#m" transform="matrix(1,0,0,1,1085,1040) translate(23.88888888888889 44.44444444444444)"/><use xlink:href="#n" transform="matrix(1,0,0,1,1085,1040) translate(23.88888888888889 71.11111111111111)"/><path d="M258.32 1440h-76.64c-.88 0-1.68-.76-1.68-1.7v-5.12c0-18.18 11.92-33.43 29.52-37.7.48-.1.88-.05 1.28.17 5.92 3.2 12.48 3.2 18.4 0 .4-.22.8-.26 1.2-.18 17.68 4.28 29.6 19.53 29.6 37.7v5.14c0 .94-.8 1.7-1.68 1.7zm-74.88-3.43h73.12v-3.4c.08-16.35-10.56-30.07-26.32-34.17-3.36 1.64-6.48 2.4-10.24 2.4s-6.88-.7-10.24-2.4c-15.76 4.1-26.4 17.82-26.32 34.18z" stroke="#fff" stroke-opacity="0" fill="#232f3e"/><path d="M220 1401.3c-3.67 0-6.8-.78-10.03-2.56-9.95-5.58-13.5-18.2-7.93-28.17 5.58-9.95 18.17-13.5 28.1-7.93 6.72 3.76 10.56 10.33 10.56 18.05 0 7.76-3.92 14.36-10.74 18.04-3.22 1.73-6.32 2.56-9.95 2.56zm0-37.83c-6.6-.17-12.26 3.18-15.44 8.96-4.5 8.38-1.4 18.8 6.94 23.34 5.4 2.93 11.36 2.93 16.77 0 5.7-3.1 9-8.68 8.96-15.2-.04-9.5-7.76-17.14-17.22-17.1z" stroke="#fff" stroke-opacity="0" fill="#232f3e"/><use xlink:href="#f" transform="matrix(1,0,0,1,150,1449) translate(38.333333333333336 17.77777777777778)"/><path d="M241.87 1400h81.25" stroke="#3a414a" fill="none"/><path stroke="#3a414a" stroke-width=".05" fill="#3a414a"/><path d="M337.88 1400l-14.26 4.63v-9.27z" stroke="#3a414a" fill="#3a414a"/><path d="M340 1346a6 6 0 0 1 6-6h148a6 6 0 0 1 6 6v108a6 6 0 0 1-6 6H346a6 6 0 0 1-6-6z" stroke="#3a414a" fill="#fff"/><use xlink:href="#g" transform="matrix(1,0,0,1,352,1352) translate(25.77777777777778 53.77777777777778)"/><path d="M501 1400h62.12" stroke="#3a414a" fill="none"/><path d="M501 1400.5h-.5v-1h.5z" stroke="#3a414a" stroke-width=".05" fill="#3a414a"/><path d="M577.88 1400l-14.26 4.63v-9.27z" stroke="#3a414a" fill="#3a414a"/><path d="M580 1346a6 6 0 0 1 6-6h148a6 6 0 0 1 6 6v108a6 6 0 0 1-6 6H586a6 6 0 0 1-6-6z" stroke="#3a414a" fill="#fff"/><use xlink:href="#c" transform="matrix(1,0,0,1,592,1352) translate(23 53.77777777777778)"/><use xlink:href="#o" transform="matrix(1,0,0,1,592,1352) translate(70.77777777777777 53.77777777777778)"/><path d="M741 1400h82.12" stroke="#3a414a" fill="none"/><path d="M741 1400.5h-.5v-1h.5z" stroke="#3a414a" stroke-width=".05" fill="#3a414a"/><path d="M837.88 1400l-14.26 4.63v-9.27z" stroke="#3a414a" fill="#3a414a"/><path d="M840 1346a6 6 0 0 1 6-6h148a6 6 0 0 1 6 6v108a6 6 0 0 1-6 6H846a6 6 0 0 1-6-6z" stroke="#3a414a" fill="#fff"/><g><use xlink:href="#p" transform="matrix(1,0,0,1,852,1352) translate(23 38.77777777777778)"/><use xlink:href="#q" transform="matrix(1,0,0,1,852,1352) translate(70.77777777777777 38.77777777777778)"/><use xlink:href="#d" transform="matrix(1,0,0,1,852,1352) translate(46.888888888888886 65.44444444444446)"/></g><path d="M1001 1400h42.12" stroke="#3a414a" fill="none"/><path d="M1001 1400.5h-.5v-1h.5z" stroke="#3a414a" stroke-width=".05" fill="#3a414a"/><path d="M1057.88 1400l-14.26 4.63v-9.27z" stroke="#3a414a" fill="#3a414a"/><path d="M1060 1346a6 6 0 0 1 6-6h148a6 6 0 0 1 6 6v108a6 6 0 0 1-6 6h-148a6 6 0 0 1-6-6z" stroke="#3a414a" fill="#fff"/><g><use xlink:href="#r" transform="matrix(1,0,0,1,1072,1352) translate(25.77777777777778 53.77777777777778)"/></g><defs><path fill="#3a414a" d="M133-219l48 7c-7 28-8 62-10 95 27-3 52-8 76-13v-127c-2-22-20-25-43-32l3-9c22 2 49 7 68 11-8 32-3 77-4 116 22-1 47-4 69-8l-4 22h-65c-2 37 1 79-6 112l-15 2-3-77c-70 18-143 24-217 32l-13-23c19 3 42 2 64 2-7-34 9-90-30-93l2-9 44 3c-3 33 4 66 5 98l49-5c-2-37 19-93-21-95zm71-13l-168 9-10-22c60 10 124 0 183-8zm1 258c-36-4-87 17-93-13 0-36 5-72-30-72 5-19 38 0 56-3-2 20-2 42-2 64-1 20 31 9 49 12 37-3 79-3 111-10l-4 22h-87" id="s"/><path fill="#3a414a" d="M42-190c0-19-11-22-25-26l3-9c51 6 104 4 154-1l-14 124 14-1-5 19c-33-2-68-3-101 0 2 13-5 16-15 17-10-35-11-82-11-123zm103-18c-25-2-56-1-79 1l3 111 72-4zm89-64c-8 34-3 82-4 123l46-3v-105c-1-22-16-25-39-32l4-9 62 11c-9 102 4 223-9 327l-15 2-3-179-46 2-6 163-14 2-3-77v-195c-1-22-13-25-35-31l4-9c22 1 39 6 58 10" id="t"/><path fill="#3a414a" d="M189-234c-13 35-32 68-55 95 26 24 53 43 84 62l-20 19-72-72C97-96 58-65 18-45l-7-7c63-40 118-94 143-171l-87 4-27 4-14-22c52 3 109 5 154-5zm15-64c22 2 48 7 67 11-6 40-2 91-3 136 23 0 50-4 71-8l-3 23h-68l-4 156c-1 8-2 15-3 20l-15 2-2-299c-3-21-21-25-44-32" id="u"/><g id="a"><use transform="matrix(0.06172839506172839,0,0,0.06172839506172839,0,0)" xlink:href="#s"/><use transform="matrix(0.06172839506172839,0,0,0.06172839506172839,21.11111111111111,0)" xlink:href="#t"/><use transform="matrix(0.06172839506172839,0,0,0.06172839506172839,42.22222222222222,0)" xlink:href="#u"/></g><path fill="#3a414a" d="M295-287c-11 58 3 139-10 201l-15 2c-4-29-3-65-3-98-25 1-49 3-70 7l-10-20c22 4 55 2 80 1v-63c-3-21-21-25-44-32l4-9c23 2 49 7 68 11zM211-79c-1-8-8-9-16-12 5-14 24-1 36 0l-4 13c35 4 64 21 64 58 0 39-32 59-74 59-41 0-73-19-73-59 0-38 30-55 67-59zm6 103c28 0 48-17 48-46 0-28-19-46-48-46-30 0-49 18-49 46 0 29 20 46 49 46zM42-256c43 7 105 4 146-4l8 8c-12 29-29 52-49 74 24 20 47 34 77 51l-20 18-65-60c-30 31-68 58-108 75l-7-8c60-29 111-78 137-139-26 1-54 0-78 4-10 0-19 2-27 3" id="v"/><path fill="#3a414a" d="M211-273c21 2 36 3 56 8-9 51 4 120-9 171-10 2-19 4-16-12h-54v77l102-5c15-1 29-3 42-5l-4 23-251 4-53 4-10-24 151 4v-77c-21 0-42 0-61 2l-2 13-15 2c-5-40-1-91-2-135-1-21-10-22-30-27l4-9 52 7c-5 14-4 35-4 54l133-5c2-35 1-59-33-61zm29 152v-66l-133 2c-1 23 2 49-2 68" id="w"/><path fill="#3a414a" d="M170-80c-2-9-6-10-16-13 7-12 25 0 38 0-2 4-4 8-5 14 36 5 66 19 66 58 0 42-35 60-76 60-42 0-76-20-76-60 0-38 32-55 69-59zm7 105c31 0 52-17 52-48 0-30-23-47-52-47s-51 16-51 47c0 32 22 48 51 48zm3-201c-40 0-98 18-98-18 0-37 7-76-30-76l4-9c64 9 154 6 217-2l-4 22c-52-4-112-3-163 1 5 25-14 71 17 70l152-9-4 22c-30-3-60-1-91-1zM7-136c104 9 230 5 329-7l-3 23-290 6-27 3" id="x"/><path fill="#3a414a" d="M109-211c0 20-9 46 14 44 52-4 112 0 158-9l-5 22h-86v40l106-4c15-1 27-3 40-5l-3 23-290 5-27 3-9-25 160 4v-41c-36-3-93 23-83-37 3-20-10-23-25-28l4-8c53 6 122 3 176 0l1-40c-54 3-116-1-164 8l-13-23c59 11 142 4 207 1l-10 52h10l-2 17zM67-66c66 6 144 1 208-5l-8 107-15 3c-3-29-4-60-3-93L77-45" id="y"/><g id="b"><use transform="matrix(0.06172839506172839,0,0,0.06172839506172839,0,0)" xlink:href="#v"/><use transform="matrix(0.06172839506172839,0,0,0.06172839506172839,21.11111111111111,0)" xlink:href="#w"/><use transform="matrix(0.06172839506172839,0,0,0.06172839506172839,42.22222222222222,0)" xlink:href="#x"/><use transform="matrix(0.06172839506172839,0,0,0.06172839506172839,63.33333333333333,0)" xlink:href="#y"/></g><path fill="#3a414a" d="M153-256c-7 23-19 44-32 61 25 23 53 42 84 60l-20 19c-23-27-48-44-71-69-28 35-65 62-104 84l-6-7c49-34 96-75 115-139-4-10-16-11-26-18l6-7c20 6 35 8 54 16zm39 177c-1-8-7-9-15-12 4-14 23-1 35-1l-4 13c36 4 64 22 64 59 0 39-32 59-74 59-41 0-73-19-73-59 0-38 30-56 67-59zm6 103c30-1 48-17 48-46 0-30-20-47-48-47-29 0-49 18-49 47 0 28 19 46 49 46zm10-322c22 2 48 7 67 11-5 28-2 64-3 96 23-1 47-5 70-8l-3 22h-67l-6 91-15 2c-6-52 0-116-3-173-1-22-21-25-44-32" id="z"/><path fill="#3a414a" d="M195-254l49 7c-5 21-8 43-11 66l58-6-6 21-220 9-9-23c20 4 43 5 67 5-5-26 3-64-29-63 2-17 32-5 48-5-3 22 2 45 3 67l66-3c3-26 15-66-19-66zM64-278c67 11 150 1 216-6l-6 21h-80l-120 8zM7-131l243 1 86-7-3 23H191c0 14 1 31-2 42l80-5-11 82 14-2-5 20c-43-4-101-2-147-1 0 5-1 11-2 15l-14 2-8-79c-1-17-8-24-24-26l4-10c29 4 58 5 91 5l-1-44-150 9zm234 72l-121 2 1 66 118-3" id="A"/><g id="c"><use transform="matrix(0.06172839506172839,0,0,0.06172839506172839,0,0)" xlink:href="#z"/><use transform="matrix(0.06172839506172839,0,0,0.06172839506172839,21.11111111111111,0)" xlink:href="#A"/></g><g id="d"><use transform="matrix(0.06172839506172839,0,0,0.06172839506172839,0,0)" xlink:href="#x"/><use transform="matrix(0.06172839506172839,0,0,0.06172839506172839,21.11111111111111,0)" xlink:href="#y"/></g><path fill="#3a414a" d="M17-92c-8-1-9-29 0-33h35v-103c-12-2-34 5-37-5 1-10-4-28 6-28h183c9 0 4 18 5 28 1 9-18 3-28 5v98c14 0 32-8 42-1 0 10 7 27-3 29C159-92 87-90 17-92zm314-83c9 3 7 32 0 35h-49v93c-3 11-25 3-37 5-3 0-5-2-5-5v-233c3-11 25-3 37-5 3 0 5 2 5 5v105h49zM291 16c9 5 8 33 0 35H100C53 54 80-14 73-51c3-11 24-4 36-6 3 0 5 3 5 6v61c0 4 2 7 7 6h170zM92-125l50-2v-101H92v103" id="B"/><path fill="#3a414a" d="M165-67c-1 18-5 23-24 24H50c-19-1-27-4-26-24v-167c1-19 5-22 24-23h93c19 0 24 4 24 23v167zm-42-152c0-3-2-4-5-4-17 1-37-1-52 1-2 44-2 99 0 144 16 2 40 2 57 0v-141zm148-61c3-11 25-3 36-5 3 0 5 2 5 5V52c-3 11-25 3-36 5-3 0-5-2-5-5v-170h-33V39c-3 8-34 9-39 0v-313c4-9 23-2 34-4 3 0 5 1 5 4v122h33v-128" id="C"/><path fill="#3a414a" d="M123-111C97-81 67-48 26-28c-8-7-27-24-16-32 53-40 110-87 125-161-28-5-68 0-100-2-8-3-9-31 1-35h117c19 0 33 9 29 29-7 33-20 61-35 87 19 29 47 53 73 75 0 11-12 16-17 24-33 3-56-47-80-68zm208-42c9 5 8 32 0 35h-49V52c-3 11-25 3-37 5-3 0-5-2-5-5v-332c3-11 25-3 37-5 3 0 5 2 5 5v127h49" id="D"/><g id="e"><use transform="matrix(0.1851851851851852,0,0,0.1851851851851852,0,0)" xlink:href="#B"/><use transform="matrix(0.1851851851851852,0,0,0.1851851851851852,62.592592592592595,0)" xlink:href="#C"/><use transform="matrix(0.1851851851851852,0,0,0.1851851851851852,125.18518518518519,0)" xlink:href="#D"/></g><g id="f"><use transform="matrix(0.06172839506172839,0,0,0.06172839506172839,0,0)" xlink:href="#s"/><use transform="matrix(0.06172839506172839,0,0,0.06172839506172839,21.11111111111111,0)" xlink:href="#t"/><use transform="matrix(0.06172839506172839,0,0,0.06172839506172839,42.22222222222222,0)" xlink:href="#u"/></g><path fill="#3a414a" d="M245-176c0 33-29 47-60 52v23l111-4c15-1 27-3 40-5l-3 23-290 5-27 3-9-25 155 4v-24c-33-5-63-18-63-52 0-72 146-70 146 0zm-73-41c-27 0-46 13-46 40 0 26 20 39 46 39 27 0 47-12 47-39 0-26-21-40-47-40zm-58-75c32 7 77 5 110 0l-4 17-96 3zm174 49l-230 8-10-21c78 9 170-1 246-7zM76-64c61 8 131 4 193-1L258 7l14-1-5 19H120c0 5-1 10-2 14l-14 2c-9-34 5-90-32-96zm165 17l-121 2 1 57 118-3" id="E"/><g id="g"><use transform="matrix(0.06172839506172839,0,0,0.06172839506172839,0,0)" xlink:href="#s"/><use transform="matrix(0.06172839506172839,0,0,0.06172839506172839,21.11111111111111,0)" xlink:href="#t"/><use transform="matrix(0.06172839506172839,0,0,0.06172839506172839,42.22222222222222,0)" xlink:href="#u"/><use transform="matrix(0.06172839506172839,0,0,0.06172839506172839,63.33333333333333,0)" xlink:href="#E"/></g><path fill="#3a414a" d="M233-298c22 2 48 7 67 11-10 101 6 226-10 327l-14 2c-4-30-3-70-3-105-72 18-155 27-234 34L26-51c36 3 72 2 108 0v-41c-31-6-61-21-61-54 0-70 143-70 143 0 0 32-27 49-59 53v39c40-4 81-10 116-19v-184c-3-21-21-25-44-32zm-88 110c-27 0-46 14-46 41 0 26 19 41 46 41 26 0 45-15 45-41 0-25-18-41-45-41zm-54-86c28 8 68 4 100 1l-5 17-84 3zm-52 41c63 8 144 3 204-6l-4 20-190 8" id="F"/><path fill="#3a414a" d="M129-266c1-10-18-7-10-17l30 5c-2 4-5 8-5 13 34 4 63 20 63 55 0 37-33 56-73 56-41 0-72-18-72-56 0-36 30-54 67-56zm-41 55c-3 49 76 56 91 17 12-31-10-62-44-61-28 1-45 16-47 44zM223 26c-46-4-108 29-98-38 3-24-11-27-30-32 5-19 38 0 56-3 3 22-16 62 15 61l117-4c14-1 26-2 36-4l-4 22c-29-3-61 0-92-2zm78-313c-12 73 5 175-10 250l-15 2-2-49c-28 0-62 2-84 7l-9-20c26 4 65 2 93 0v-160c-3-21-21-25-44-32l4-9c22 2 48 7 67 11zm-50 150l-102 16c1 21-2 41-5 58l-15 2c-3-16-6-37-5-57l-88 8-13-23c79 7 159-2 228-14v10" id="G"/><path fill="#3a414a" d="M206-298c22 2 48 7 67 11-6 42-2 96-3 144 23-1 47-4 70-8l-4 22h-66l-6 169-15 2-3-76v-223c-3-21-21-25-44-32zM26-233c53 0 110 6 155-5l8 8C158-145 99-77 24-37l-8-8c64-39 114-97 139-173l-115 7" id="H"/><path fill="#3a414a" d="M99-265c5-12 24 0 36 0l-4 14c37 5 67 23 67 62 0 42-34 64-78 64s-78-21-78-64c0-41 33-59 73-63-1-8-8-9-16-13zm21 125c32 0 53-18 53-50 0-31-21-51-53-51s-53 20-53 51c0 32 21 50 53 50zm146-117c-1-22-21-25-44-32l4-9c22 2 48 7 67 11-10 49 2 121-9 173l-16 3c-5-43 1-98-2-146zm-29 151c22 2 35 3 55 8-7 38 2 92-9 130-10 2-19 4-16-11-40-2-75 2-115 3l-3 12-14 3C121 0 155-82 104-86l3-8c19 1 35 3 52 7-3 10-5 23-4 36l111-6c3-28-11-36-32-40zM153 10c39 1 77-2 113-5v-45c-40-2-73-1-111 2" id="I"/><g id="h"><use transform="matrix(0.06172839506172839,0,0,0.06172839506172839,0,0)" xlink:href="#F"/><use transform="matrix(0.06172839506172839,0,0,0.06172839506172839,21.11111111111111,0)" xlink:href="#G"/><use transform="matrix(0.06172839506172839,0,0,0.06172839506172839,42.22222222222222,0)" xlink:href="#H"/><use transform="matrix(0.06172839506172839,0,0,0.06172839506172839,63.33333333333333,0)" xlink:href="#I"/></g><path fill="#3a414a" d="M42-37c43 0 23 74-4 81-7 4-14 8-24 11V42c17-5 29-14 31-30C42-2 20 1 21-18c0-12 9-19 21-19" id="J"/><g id="i"><use transform="matrix(0.06172839506172839,0,0,0.06172839506172839,0,0)" xlink:href="#v"/><use transform="matrix(0.06172839506172839,0,0,0.06172839506172839,21.11111111111111,0)" xlink:href="#w"/><use transform="matrix(0.06172839506172839,0,0,0.06172839506172839,42.22222222222222,0)" xlink:href="#J"/></g><path fill="#3a414a" d="M153-252c-8 25-20 47-35 66 26 25 54 46 87 65l-21 18-73-73c-27 35-63 64-101 87l-6-7c49-36 95-82 115-147-4-10-16-11-26-18 12-17 42 6 60 9zm12 279c-22-1-53 11-53-14 0-38 7-77-31-77 5-18 38-2 56-2l-1 68c-2 21 32 9 49 12L296 4l-4 22zm42-325c22 2 48 7 67 11-5 31-2 71-3 106 23 0 48-3 69-7l-4 21h-65l-6 122-15 2c-5-67 0-142-3-214-1-22-21-25-44-32" id="K"/><g id="j"><use transform="matrix(0.06172839506172839,0,0,0.06172839506172839,0,0)" xlink:href="#v"/><use transform="matrix(0.06172839506172839,0,0,0.06172839506172839,21.11111111111111,0)" xlink:href="#K"/></g><g id="k"><use transform="matrix(0.06172839506172839,0,0,0.06172839506172839,0,0)" xlink:href="#v"/><use transform="matrix(0.06172839506172839,0,0,0.06172839506172839,21.11111111111111,0)" xlink:href="#w"/></g><g id="l"><use transform="matrix(0.06172839506172839,0,0,0.06172839506172839,0,0)" xlink:href="#s"/><use transform="matrix(0.06172839506172839,0,0,0.06172839506172839,21.11111111111111,0)" xlink:href="#t"/><use transform="matrix(0.06172839506172839,0,0,0.06172839506172839,42.22222222222222,0)" xlink:href="#u"/></g><g id="m"><use transform="matrix(0.06172839506172839,0,0,0.06172839506172839,0,0)" xlink:href="#x"/><use transform="matrix(0.06172839506172839,0,0,0.06172839506172839,21.11111111111111,0)" xlink:href="#y"/></g><path fill="#3a414a" d="M209-298c22 2 48 7 67 11-7 38-3 86-4 130 23-1 48-4 71-8l-3 22h-68l-5 106-16 2-2-78L23-82 9-104c32 6 71 3 103 0v-38c-36-4-65-20-65-58 0-39 31-56 70-59-1-8-6-10-14-12 3-14 26-1 34-1l-4 13c34 6 65 21 65 59 0 36-29 52-62 58v36l113-16v-135c-3-21-21-25-44-32zm-86 142c30 0 51-16 51-45s-21-46-51-47c-31 0-50 18-50 47s20 45 50 45zm38 183c-23 0-54 11-54-14 0-35 0-60-31-61 5-19 38-2 56-3 2 21-16 66 16 65l115-4c14-1 25-2 35-4l-3 22c-43-3-90-1-134-1" id="L"/><path fill="#3a414a" d="M103-168c2 25-13 62 14 62l80-1 85-8-5 22-36-1v64l91-7-4 23L50-9 24-6 14-31l106 5v-66c-22 1-43 5-42-17 1-32 5-66-25-68l3-8c54 6 125 3 181 0l3-60c-54-1-122-1-170 7l-13-22c64 8 148 3 214 0-7 22-8 50-13 74l14-1-2 17zm114 74l-73 2v66l73-2v-66" id="M"/><g id="n"><use transform="matrix(0.06172839506172839,0,0,0.06172839506172839,0,0)" xlink:href="#L"/><use transform="matrix(0.06172839506172839,0,0,0.06172839506172839,21.11111111111111,0)" xlink:href="#M"/></g><path fill="#3a414a" d="M123-188c-4 24-3 52-3 79 47-3 90-9 130-18v-130c-3-21-21-25-44-32l4-9c22 2 48 7 67 11-8 35-2 84-4 126l70-7-3 21h-67l-5 103-16 3-2-76L23-86 9-108c27 5 60 3 88 1-1-35 9-79-27-78 4-19 35-3 53-3zm54-52c-39-1-74 5-110 5-8 0-17 2-26 4l-12-23c55 7 116 3 171-4l7 6-27 108-14 1c5-28 10-64 11-97zM161 27c-23 0-54 11-54-14 1-37 4-70-31-70 5-18 39-1 57-2-4 16-1 41-2 61-1 21 32 12 50 12 39 0 83-3 118-8l-4 22c-43-3-90-1-134-1" id="N"/><path fill="#3a414a" d="M86-144c2 28-14 74 14 74 57 0 118-16 165-31v-156c-2-22-21-25-44-32l4-9c23 2 49 7 68 11-12 98 4 223-10 327l-15 2-3-133C215-74 152-61 93-51c-63 11 0-95-56-102l3-8c44 5 85 5 127 1l4-69c-39-2-82 2-118 7l-12-22c48 7 110 6 159 0-6 26-9 55-13 83l13-2-2 17c-44-2-77 1-112 2" id="O"/><g id="o"><use transform="matrix(0.06172839506172839,0,0,0.06172839506172839,0,0)" xlink:href="#N"/><use transform="matrix(0.06172839506172839,0,0,0.06172839506172839,21.11111111111111,0)" xlink:href="#O"/></g><path fill="#3a414a" d="M170-252c-8 25-20 47-35 66 26 24 54 46 86 65l-20 18-73-73c-27 35-63 64-101 87l-7-7c50-36 96-82 116-147-5-9-15-11-26-18 12-17 42 6 60 9zm96-5c-1-22-20-25-43-32l3-9c23 2 49 7 68 11-12 70 5 170-10 242l-15 2c-5-67-1-142-3-214zM224 26c-36-4-90 18-93-13-4-39 8-77-30-77 5-18 38-2 56-2-2 21-2 45-2 68-1 20 31 9 49 12 37-3 79-3 111-10l-4 22h-87" id="P"/><path fill="#3a414a" d="M10-140l215 3c7-39 19-76 23-119l-148 5-30 4-13-23c70 10 147-1 216-5 14 37-22 98-31 137l92-8-4 23-92-1-5 163-16 2-2-165-80 2-6 154-15 2-3-155-92 6" id="Q"/><g id="p"><use transform="matrix(0.06172839506172839,0,0,0.06172839506172839,0,0)" xlink:href="#P"/><use transform="matrix(0.06172839506172839,0,0,0.06172839506172839,21.11111111111111,0)" xlink:href="#Q"/></g><g id="q"><use transform="matrix(0.06172839506172839,0,0,0.06172839506172839,0,0)" xlink:href="#z"/><use transform="matrix(0.06172839506172839,0,0,0.06172839506172839,21.11111111111111,0)" xlink:href="#A"/></g><path fill="#3a414a" d="M63-279c65 6 142 4 205-2l-11 90 13-1-4 19-76-2v54l106-5c15-1 27-3 40-5l-3 23-290 5-27 3-9-24 160 3v-53l-58 1-2 11-14 2c-5-25-6-57-10-84 1-19-10-22-24-26zm177 17l-133 1 3 75 128-3zM66-67c67 7 140-2 208-4-5 33 2 77-8 107l-15 3c-3-30-4-61-3-94l-131 5c-16 0-24 3-40 5" id="R"/><g id="r"><use transform="matrix(0.06172839506172839,0,0,0.06172839506172839,0,0)" xlink:href="#z"/><use transform="matrix(0.06172839506172839,0,0,0.06172839506172839,21.11111111111111,0)" xlink:href="#A"/><use transform="matrix(0.06172839506172839,0,0,0.06172839506172839,42.22222222222222,0)" xlink:href="#R"/><use transform="matrix(0.06172839506172839,0,0,0.06172839506172839,63.33333333333333,0)" xlink:href="#y"/></g></defs></g></svg>